<svg width="755" height="57" viewBox="0 0 755 57" fill="none" xmlns="http://www.w3.org/2000/svg">
<line x1="383" y1="23.5" x2="690" y2="23.5" stroke="black"/>
<line x1="57" y1="23.5" x2="364" y2="23.5" stroke="black"/>
<path d="M704 24L704.011 24.01" stroke="black" stroke-width="1.5" stroke-linecap="round" stroke-linejoin="round"/>
<path d="M707 24L707.011 24.01" stroke="black" stroke-width="1.5" stroke-linecap="round" stroke-linejoin="round"/>
<path d="M710 24L710.011 24.01" stroke="black" stroke-width="1.5" stroke-linecap="round" stroke-linejoin="round"/>
<path d="M690 24C690 29.5228 694.477 34 700 34C703.271 34 706.176 32.4293 708 30.001L700 24L708 17.999C706.176 15.5707 703.271 14 700 14C694.477 14 690 18.4771 690 24Z" stroke="black" stroke-width="1.5" stroke-linecap="round" stroke-linejoin="round"/>
<path d="M42 24.5L45 27.5L52 20.5" stroke="black" stroke-width="1.5" stroke-linecap="round" stroke-linejoin="round"/>
<path d="M47 34C52.5228 34 57 29.5228 57 24C57 18.4771 52.5228 14 47 14C41.4771 14 37 18.4771 37 24C37 29.5228 41.4771 34 47 34Z" stroke="black" stroke-width="1.5" stroke-linecap="round" stroke-linejoin="round"/>
<path d="M369 24.5L372 27.5L379 20.5" stroke="black" stroke-width="1.5" stroke-linecap="round" stroke-linejoin="round"/>
<path d="M374 34C379.523 34 384 29.5228 384 24C384 18.4771 379.523 14 374 14C368.477 14 364 18.4771 364 24C364 29.5228 368.477 34 374 34Z" stroke="black" stroke-width="1.5" stroke-linecap="round" stroke-linejoin="round"/>
</svg>
