<svg width="40" height="40" viewBox="0 0 40 40" fill="none" xmlns="http://www.w3.org/2000/svg">
<path d="M32.5 36.6667C33.8807 36.6667 35 35.5473 35 34.1667C35 32.786 33.8807 31.6667 32.5 31.6667C31.1193 31.6667 30 32.786 30 34.1667C30 35.5473 31.1193 36.6667 32.5 36.6667Z" fill="white" stroke="white" stroke-width="1.5" stroke-linecap="round" stroke-linejoin="round"/>
<path d="M15.8333 36.6667C17.214 36.6667 18.3333 35.5473 18.3333 34.1667C18.3333 32.786 17.214 31.6667 15.8333 31.6667C14.4526 31.6667 13.3333 32.786 13.3333 34.1667C13.3333 35.5473 14.4526 36.6667 15.8333 36.6667Z" fill="white" stroke="white" stroke-width="1.5" stroke-linecap="round" stroke-linejoin="round"/>
<path d="M8.33331 6.66668C8.05553 5.55556 6.66665 3.33334 3.33331 3.33334M8.33331 6.66668H36.6666L33.3333 25H11.6666L8.33331 6.66668Z" stroke="white" stroke-width="1.5" stroke-linecap="round" stroke-linejoin="round"/>
<path d="M33.3334 25H11.6667H8.71797C5.74412 25 4.16669 26.302 4.16669 28.3333C4.16669 30.3647 5.74412 31.6667 8.71797 31.6667H32.5" stroke="white" stroke-width="1.5" stroke-linecap="round" stroke-linejoin="round"/>
</svg>
