<?xml version="1.0" standalone="no"?>
<!DOCTYPE svg PUBLIC "-//W3C//DTD SVG 20010904//EN"
 "http://www.w3.org/TR/2001/REC-SVG-20010904/DTD/svg10.dtd">
<svg version="1.0" xmlns="http://www.w3.org/2000/svg"
 width="1400.000000pt" height="980.000000pt" viewBox="0 0 1400.000000 980.000000"
 preserveAspectRatio="xMidYMid meet">

<g transform="translate(0.000000,980.000000) scale(0.100000,-0.100000)"
fill="#000000" stroke="none">
<path d="M744 8584 c-13 -87 2 -382 24 -469 44 -174 123 -319 232 -426 l67
-66 -19 -24 c-38 -49 -87 -147 -114 -229 -27 -81 -28 -94 -30 -285 -1 -148 -5
-217 -17 -265 -54 -213 25 -401 212 -506 53 -30 183 -74 217 -74 13 0 24 -3
24 -7 0 -5 -16 -60 -36 -123 -91 -297 -97 -555 -15 -706 l29 -53 -79 -66 c-81
-69 -95 -96 -59 -115 24 -13 87 2 185 43 39 17 81 29 95 29 14 -1 62 -4 107
-8 76 -6 89 -4 175 27 129 45 227 45 346 0 89 -33 182 -41 251 -21 30 8 47 5
120 -25 159 -63 211 -67 211 -15 0 17 -50 68 -119 121 l-34 26 31 64 c16 35
32 71 35 79 3 8 57 43 121 78 63 34 118 66 120 71 3 4 8 45 12 90 l7 82 71 41
c58 33 78 51 105 97 19 31 75 117 123 192 l89 136 72 6 c40 4 134 10 209 13
75 4 141 10 147 14 10 6 95 714 117 968 6 73 5 82 -10 82 -10 0 -198 -99 -419
-220 -221 -121 -406 -221 -411 -222 -5 -2 -9 85 -10 192 -2 186 -3 199 -30
275 -31 87 -77 176 -110 213 l-21 23 53 51 c146 139 230 314 267 558 15 98 18
243 7 340 l-7 55 -38 -1 c-22 -1 -76 -20 -132 -47 -251 -122 -448 -342 -556
-625 -20 -53 -27 -62 -44 -57 -11 3 -72 15 -135 26 -158 29 -369 29 -535 -1
-66 -12 -126 -23 -133 -23 -7 -1 -31 41 -56 98 -70 165 -139 267 -253 380
-106 105 -244 196 -359 235 -85 30 -92 28 -100 -26z m427 -241 c117 -123 200
-254 254 -397 14 -38 24 -69 23 -71 -2 -1 -34 -15 -73 -31 -75 -31 -188 -101
-246 -152 l-36 -31 -60 62 c-33 34 -75 84 -93 110 -41 63 -100 189 -100 218 0
27 50 116 107 191 39 51 149 158 164 158 3 0 30 -26 60 -57z m1674 -56 c61
-65 155 -207 155 -232 0 -22 -68 -164 -104 -218 -21 -31 -65 -84 -98 -117
l-61 -60 -39 36 c-57 51 -145 106 -233 145 -74 32 -76 34 -71 62 9 44 79 187
131 269 26 40 82 108 123 150 l75 77 28 -19 c15 -11 57 -53 94 -93z m-663
-413 c267 -44 474 -163 588 -338 88 -133 130 -334 110 -518 -10 -90 -9 -102
12 -170 31 -100 30 -220 -1 -301 -32 -80 -106 -154 -201 -200 -79 -38 -175
-67 -222 -67 -16 0 -31 -6 -33 -13 -3 -7 11 -59 30 -117 101 -300 118 -526 52
-690 -34 -82 -63 -115 -135 -151 -54 -28 -74 -32 -135 -32 -51 0 -87 6 -122
21 -132 57 -309 56 -420 -1 -30 -15 -59 -20 -115 -20 -141 0 -236 68 -282 202
-20 58 -23 84 -22 221 1 171 13 240 80 443 20 59 33 114 30 122 -3 9 -18 15
-36 15 -49 0 -211 57 -265 93 -74 50 -129 116 -155 183 -19 51 -21 72 -17 159
3 55 12 120 21 144 13 36 15 68 10 185 -8 166 4 254 47 366 64 166 176 283
354 370 221 107 533 143 827 94z m1544 -621 c-3 -21 -8 -63 -11 -93 -3 -30
-18 -174 -35 -320 -16 -146 -34 -315 -41 -376 l-11 -112 -77 -6 c-42 -3 -137
-8 -211 -12 l-136 -6 -79 -125 c-186 -289 -174 -274 -250 -319 -48 -28 -71
-47 -73 -62 -2 -12 -7 -22 -11 -22 -5 0 -29 22 -55 50 -70 74 -66 91 39 174
l85 67 0 158 0 157 30 41 c65 89 92 254 60 372 -6 23 -10 44 -8 46 2 1 131 72
288 158 157 85 330 180 385 211 55 30 104 56 108 56 5 0 6 -17 3 -37z m-916
-1017 l0 -124 -80 -63 -79 -64 -1 -92 c0 -83 -2 -93 -21 -103 -11 -7 -22 -10
-23 -8 -2 2 -13 55 -24 118 -12 63 -37 162 -56 220 -19 58 -32 108 -29 113 2
4 13 7 23 7 38 0 176 51 230 84 30 19 56 35 58 35 1 1 2 -55 2 -123z m-1437
-940 c9 -7 17 -16 17 -19 0 -7 -140 -60 -146 -55 -4 5 95 88 105 88 3 0 14 -7
24 -14z m1168 -28 c27 -22 47 -43 45 -45 -2 -2 -36 8 -75 23 -69 26 -71 27
-55 45 24 26 29 25 85 -23z"/>
<path d="M1409 7047 c-25 -17 -35 -31 -37 -56 -5 -52 6 -79 38 -96 43 -22 76
-18 111 13 24 22 31 36 31 65 0 42 -13 62 -53 83 -38 19 -50 18 -90 -9z"/>
<path d="M2333 7055 c-17 -7 -36 -22 -42 -34 -48 -89 63 -183 142 -121 55 43
40 136 -24 159 -39 13 -37 13 -76 -4z"/>
<path d="M1712 6968 c-19 -19 -14 -83 8 -111 37 -46 132 -45 175 3 17 19 18
19 53 -8 90 -68 210 -7 183 93 -13 50 -37 38 -33 -16 2 -29 -1 -49 -10 -56
-41 -32 -108 -17 -147 33 l-23 29 -26 -33 c-32 -39 -81 -55 -122 -41 -33 12
-44 37 -35 78 7 32 -5 47 -23 29z"/>
<path d="M1180 6869 c-43 -9 -99 -68 -102 -106 -2 -52 3 -88 18 -111 22 -34
74 -62 117 -62 88 0 147 56 147 138 0 101 -78 162 -180 141z m4 -55 c35 -13 7
-69 -31 -62 -19 3 -28 30 -19 54 6 15 24 18 50 8z"/>
<path d="M2540 6853 c-39 -27 -58 -55 -65 -95 -9 -51 10 -101 51 -138 30 -26
43 -30 89 -30 49 0 59 4 95 36 66 60 67 147 3 209 -33 32 -42 35 -92 35 -37 0
-65 -6 -81 -17z m159 -47 c18 -22 -4 -58 -32 -54 -37 5 -36 68 1 68 11 0 25
-6 31 -14z"/>
<path d="M1508 6055 c-3 -4 4 -32 17 -64 28 -68 55 -179 55 -225 0 -36 -15
-56 -42 -56 -22 0 -82 53 -105 91 -18 30 -43 39 -43 16 0 -21 54 -91 88 -116
41 -28 96 -28 116 1 31 43 16 157 -37 292 -21 56 -36 74 -49 61z"/>
<path d="M2274 5988 c-78 -204 -71 -308 20 -308 39 0 76 27 127 91 25 32 29
43 19 52 -9 9 -17 5 -34 -18 -65 -92 -127 -120 -147 -68 -13 34 10 152 46 242
24 58 25 81 5 81 -4 0 -21 -33 -36 -72z"/>
<path d="M3950 8274 c0 -330 76 -592 238 -821 38 -55 195 -213 211 -213 11 0
4 -366 -9 -436 -19 -105 -9 -236 22 -304 53 -114 156 -199 303 -246 l82 -27
-23 -34 c-35 -52 -38 -70 -17 -106 19 -31 19 -33 1 -62 -10 -17 -18 -45 -18
-63 0 -27 6 -36 34 -53 l34 -20 -34 -73 c-82 -179 -103 -366 -52 -477 51 -112
129 -171 228 -173 42 -1 76 8 145 36 123 50 191 61 332 56 107 -4 127 -8 213
-42 141 -56 176 -62 245 -42 70 21 133 81 165 160 l23 54 76 12 c320 52 523
226 550 474 9 75 1 218 -14 279 -6 23 -4 27 14 27 39 0 106 33 148 73 102 98
119 266 43 418 -77 152 -272 226 -447 171 l-61 -19 -5 21 c-2 11 -4 105 -3
208 l2 186 55 45 c99 81 194 207 260 343 91 192 131 378 133 629 l1 170 -91
-1 c-169 -3 -398 -84 -589 -208 -78 -51 -253 -212 -302 -278 l-21 -28 -78 22
c-73 20 -101 22 -359 22 -253 0 -287 -2 -355 -21 l-75 -21 -49 57 c-208 238
-457 385 -758 445 -42 9 -104 16 -138 16 l-60 0 0 -156z m266 76 c102 -26 224
-76 319 -130 99 -57 245 -178 313 -260 l53 -63 -68 -35 c-37 -19 -81 -44 -97
-55 l-29 -21 -46 55 c-140 168 -311 304 -459 363 -40 16 -74 27 -76 25 -8 -9
16 -125 45 -217 57 -177 137 -317 248 -435 l65 -68 -18 -47 c-10 -26 -26 -76
-35 -112 l-18 -65 -77 75 c-136 131 -235 307 -289 515 -29 111 -43 211 -53
389 l-7 119 77 -7 c42 -4 110 -16 152 -26z m2564 -63 c0 -161 -28 -346 -77
-502 -49 -156 -168 -345 -279 -442 -49 -44 -60 -50 -65 -35 -4 9 -20 59 -37
110 l-30 93 60 62 c137 143 238 340 283 552 21 98 20 108 -7 100 -44 -13 -169
-75 -223 -110 -91 -61 -225 -189 -306 -293 l-26 -34 -88 51 c-48 28 -93 52
-98 54 -29 9 166 205 278 279 175 116 419 204 573 207 l42 1 0 -93z m-1059
-401 c190 -44 348 -138 439 -261 121 -164 175 -368 169 -645 -2 -82 2 -169 10
-221 34 -212 -53 -366 -251 -443 -97 -38 -164 -48 -181 -28 -22 27 -91 52
-145 52 -51 0 -52 1 -46 25 4 18 1 32 -11 45 -25 28 -90 26 -206 -6 -51 -14
-101 -26 -109 -26 -8 0 -58 11 -110 26 -156 43 -228 32 -218 -32 l5 -32 -53 0
c-63 0 -100 -13 -134 -45 -25 -24 -26 -24 -93 -10 -145 30 -268 115 -322 222
-25 49 -31 72 -33 149 -2 52 2 117 9 150 9 39 12 114 10 219 -2 132 1 178 19
265 40 201 158 389 299 480 71 45 202 99 284 117 149 32 527 32 668 -1z m995
-1101 c62 -30 117 -83 144 -135 29 -59 43 -158 31 -225 -22 -119 -87 -186
-200 -207 -55 -10 -62 -14 -57 -32 3 -12 8 -39 12 -62 5 -37 4 -42 -16 -47
-34 -9 -64 11 -86 56 -16 35 -24 43 -52 45 -19 2 -46 -1 -62 -6 -31 -11 -50 0
-50 29 0 32 -38 66 -80 72 -84 11 -90 42 -21 114 27 28 61 77 76 109 24 51 29
75 33 172 4 98 7 114 24 123 69 37 223 34 304 -6z m-1414 -422 l87 -26 70 22
c39 12 100 27 137 33 79 12 95 4 74 -39 -8 -16 -14 -32 -15 -37 0 -5 38 -10
85 -10 90 -1 134 -17 147 -54 4 -9 26 -36 50 -59 47 -46 54 -76 23 -95 -26
-17 -25 -29 5 -75 36 -52 30 -77 -20 -83 -36 -4 -40 -8 -41 -33 -1 -16 -10
-38 -22 -49 -19 -19 -25 -20 -60 -10 -22 7 -59 28 -83 47 -24 19 -49 35 -56
35 -6 0 -13 -17 -15 -37 -3 -33 -7 -38 -30 -41 -15 -2 -48 6 -74 17 -50 22
-64 20 -64 -8 0 -11 -8 -29 -19 -42 -19 -24 -35 -22 -82 12 -13 10 -22 7 -45
-10 -38 -28 -58 -20 -78 30 -9 21 -17 39 -19 39 -1 0 -20 -9 -42 -20 -67 -34
-126 -19 -110 29 10 34 -15 34 -60 2 -44 -31 -104 -61 -125 -61 -19 0 -50 40
-50 64 0 21 -5 25 -36 28 -57 5 -65 28 -30 91 l28 51 -21 14 c-39 26 -27 59
52 137 64 64 79 74 120 80 26 4 67 4 92 1 50 -8 54 -2 29 46 -13 25 -14 32 -2
40 19 12 100 1 200 -29z m898 -66 c0 -23 35 -48 76 -54 49 -7 61 -17 69 -54 4
-16 18 -37 31 -46 22 -14 30 -14 65 -3 46 16 72 6 77 -28 5 -35 60 -74 98 -70
33 4 33 4 39 -47 9 -74 -17 -203 -56 -275 -38 -72 -112 -143 -195 -187 -62
-33 -196 -76 -274 -87 l-45 -6 -2 63 c-3 81 -33 196 -77 298 -34 79 -37 99
-14 99 23 0 48 34 48 64 0 17 -9 46 -21 65 -18 30 -19 35 -5 50 23 26 19 73
-9 111 -14 19 -25 35 -25 36 0 1 38 14 84 29 47 15 93 33 103 41 23 17 33 17
33 1z m-351 -487 c22 0 43 8 57 21 l22 21 27 -57 c46 -102 75 -220 75 -310 0
-73 -4 -89 -32 -145 -21 -40 -47 -74 -72 -92 -44 -31 -67 -37 -43 -10 69 77
-32 357 -157 433 -47 29 -100 25 -126 -8 -19 -24 -21 -37 -17 -88 10 -112 73
-269 130 -318 23 -20 26 -25 9 -17 -137 67 -360 90 -511 51 -46 -11 -109 -32
-140 -46 l-56 -26 35 30 c102 84 180 361 119 422 -17 17 -30 20 -66 16 -132
-15 -281 -315 -218 -437 21 -41 6 -38 -47 10 -67 59 -92 123 -92 235 0 57 7
112 18 150 20 66 75 205 82 205 2 0 14 -10 25 -21 28 -28 94 -21 150 15 l40
27 29 -31 c31 -33 47 -36 105 -15 49 18 55 18 55 3 0 -19 42 -58 62 -58 11 0
32 7 49 15 27 14 32 14 51 0 42 -29 85 -14 116 40 9 17 12 17 55 0 58 -22 95
-14 110 24 l10 28 55 -34 c35 -21 69 -33 91 -33z m-111 -217 c103 -104 159
-334 80 -333 -57 1 -103 54 -149 173 -35 92 -46 165 -30 195 15 29 45 18 99
-35z m-598 -6 c0 -55 -31 -160 -68 -233 -43 -85 -134 -126 -148 -68 -29 115
101 353 194 354 20 0 22 -5 22 -53z"/>
<path d="M4881 7096 c-32 -18 -50 -53 -51 -97 0 -33 -2 -36 -31 -37 -46 -1
-79 -37 -79 -84 0 -73 71 -111 130 -71 34 23 40 33 40 67 0 25 3 27 25 22 32
-8 88 15 109 45 18 26 21 75 6 113 -18 48 -98 70 -149 42z"/>
<path d="M5772 7085 c-79 -66 -32 -189 72 -188 39 1 41 0 42 -30 1 -20 11 -39
28 -54 66 -57 160 1 141 87 -8 36 -45 63 -85 63 -26 0 -28 3 -23 27 6 32 -18
82 -49 104 -35 25 -91 20 -126 -9z"/>
<path d="M5261 6991 c-6 -11 -11 -40 -11 -65 0 -64 19 -73 143 -74 92 0 98 1
117 25 23 29 25 56 9 102 -18 52 -45 36 -30 -17 19 -63 -5 -88 -69 -73 -19 4
-50 4 -67 -1 -21 -6 -40 -5 -54 3 -19 10 -21 17 -15 59 7 52 -6 74 -23 41z"/>
<path d="M5017 5793 c-4 -3 -7 -21 -7 -39 0 -41 -9 -64 -24 -64 -6 0 -28 11
-49 25 -38 26 -61 26 -51 0 9 -21 67 -55 96 -55 36 0 60 33 66 90 4 39 1 50
-10 50 -8 0 -18 -3 -21 -7z"/>
<path d="M5730 5752 c0 -82 42 -112 109 -78 39 21 57 44 43 58 -8 8 -19 4 -42
-16 -17 -14 -38 -26 -45 -26 -20 0 -35 32 -35 74 0 25 -4 36 -15 36 -11 0 -15
-12 -15 -48z"/>
<path d="M11839 8295 c-318 -44 -556 -150 -722 -324 -41 -43 -92 -105 -112
-137 -38 -60 -105 -205 -105 -229 0 -18 -54 -26 -135 -20 -84 7 -112 -5 -139
-58 -25 -52 -15 -97 31 -137 30 -27 42 -31 73 -27 20 2 57 19 81 37 l44 32 6
-99 c4 -54 14 -122 23 -152 14 -49 14 -60 0 -120 -26 -110 -29 -227 -9 -317
22 -102 56 -164 127 -234 l57 -55 -24 -78 c-13 -43 -29 -128 -36 -190 -10 -95
-9 -125 4 -200 26 -150 102 -279 209 -357 l37 -27 -56 -74 c-64 -85 -83 -125
-83 -172 0 -60 44 -81 131 -64 35 7 36 6 54 -34 10 -22 28 -47 39 -55 31 -22
88 -17 129 10 l35 24 27 -28 c43 -44 79 -56 111 -35 35 23 54 72 67 177 11 84
12 89 33 84 110 -28 453 -31 578 -6 27 6 51 8 54 5 2 -2 8 -39 13 -82 10 -98
29 -152 61 -176 34 -26 67 -17 112 29 l35 36 31 -26 c60 -50 144 -26 172 50
11 30 16 34 38 29 76 -17 133 -3 145 36 13 40 -6 89 -71 179 l-66 92 38 31
c107 87 170 190 200 323 23 105 15 255 -21 395 l-27 106 55 55 c60 60 96 122
122 213 21 72 16 271 -9 350 -14 46 -14 54 4 113 14 44 20 93 20 153 0 49 4
89 9 89 4 0 25 -14 46 -30 63 -50 109 -52 162 -6 24 21 28 31 28 79 0 45 -5
60 -24 81 -29 31 -82 43 -131 29 -25 -6 -51 -6 -80 1 -40 10 -45 15 -60 61
-70 206 -228 390 -430 498 -251 135 -596 193 -901 152z m481 -59 c331 -59 567
-199 715 -422 37 -55 94 -177 95 -200 0 -8 -20 -7 -67 5 -65 17 -68 19 -74 52
-23 141 -212 245 -398 219 -118 -17 -193 -84 -193 -174 0 -86 62 -163 171
-215 50 -23 68 -26 166 -26 110 0 127 4 192 45 19 12 33 9 130 -27 l108 -41 3
-88 c2 -49 -2 -114 -8 -144 -25 -114 -112 -237 -222 -311 -55 -37 -167 -94
-173 -87 -1 2 -8 48 -15 102 -12 100 -58 273 -86 328 -14 27 -13 32 5 62 31
49 27 89 -9 120 -39 32 -84 45 -188 53 -76 6 -88 10 -158 54 -82 51 -198 89
-275 89 -62 0 -200 -43 -251 -78 -71 -48 -105 -62 -153 -62 -82 0 -186 -29
-218 -62 -25 -24 -29 -34 -24 -65 4 -19 14 -44 23 -54 15 -17 14 -23 -14 -101
-34 -96 -67 -236 -77 -325 -4 -35 -9 -63 -12 -63 -3 0 -44 20 -91 45 -110 57
-169 108 -225 193 -65 98 -81 156 -82 285 l0 108 107 41 107 40 65 -32 c61
-30 69 -32 163 -28 122 4 199 35 267 108 100 107 79 223 -50 286 -48 24 -68
27 -142 26 -98 0 -145 -14 -226 -66 -60 -38 -102 -95 -114 -154 -8 -36 -10
-37 -72 -53 -36 -8 -67 -11 -69 -7 -8 20 102 218 159 285 158 189 419 313 735
352 107 13 370 6 475 -13z m-810 -397 c107 -23 154 -103 110 -186 -38 -72
-110 -116 -217 -134 -91 -15 -170 1 -218 43 l-34 30 -148 -57 c-81 -31 -157
-60 -168 -63 -11 -3 -35 -18 -53 -34 -18 -15 -44 -28 -57 -28 -59 0 -88 84
-41 115 19 13 39 15 93 10 57 -5 92 -1 213 28 l145 34 3 34 c6 80 33 121 109
166 80 47 172 62 263 42z m1212 0 c134 -29 237 -127 221 -211 -6 -30 -13 -28
187 -73 93 -21 128 -25 185 -20 82 8 105 -4 105 -57 0 -65 -62 -89 -112 -43
-15 14 -44 31 -65 39 -21 7 -98 36 -172 64 l-133 50 -40 -28 c-103 -75 -282
-58 -387 36 -60 54 -78 98 -61 149 27 81 143 121 272 94z m-531 -288 c31 -12
76 -35 99 -52 53 -39 110 -59 166 -59 66 0 142 -20 170 -43 l25 -22 -27 -39
-26 -38 40 -122 c57 -170 75 -270 70 -386 -8 -155 -60 -241 -179 -295 -115
-51 -179 -59 -479 -60 -300 0 -383 10 -498 61 -74 33 -114 72 -149 148 -26 57
-28 69 -27 181 1 100 6 139 32 236 17 64 42 142 57 174 27 63 29 56 -19 120
-29 39 39 72 173 85 79 7 101 13 140 39 59 40 124 71 181 87 62 18 182 11 251
-15z m-1188 -582 c41 -50 165 -146 209 -162 11 -4 11 -8 0 -27 -21 -34 -98
-191 -116 -233 -14 -34 -18 -37 -36 -27 -33 18 -97 106 -121 167 -20 49 -23
77 -24 178 0 66 4 138 9 160 7 36 10 38 20 21 6 -10 33 -45 59 -77z m2164 -56
c6 -141 -6 -209 -52 -288 -33 -56 -106 -124 -113 -106 -3 8 -36 76 -73 150
-38 74 -67 135 -66 136 83 36 180 114 237 191 25 34 49 58 54 53 4 -4 11 -65
13 -136z m-1858 -143 c12 -6 21 -26 25 -58 3 -27 20 -77 37 -111 50 -101 128
-151 299 -194 76 -18 115 -21 360 -21 301 -1 360 6 491 56 130 49 204 135 229
267 12 63 10 60 40 63 20 3 30 -8 62 -62 53 -91 122 -252 155 -362 25 -84 28
-107 28 -243 0 -133 -3 -156 -24 -208 -71 -180 -195 -279 -446 -360 -182 -58
-280 -71 -525 -71 -182 0 -233 3 -331 22 -392 76 -602 228 -654 477 -28 132
-12 289 47 460 45 133 158 355 180 355 5 0 17 -4 27 -10z m1611 -1375 c23 -60
3 -72 -80 -51 -63 17 -72 12 -89 -44 -6 -22 -23 -47 -36 -56 -21 -14 -26 -14
-54 0 -16 9 -36 24 -43 34 -26 37 -37 34 -87 -20 -42 -45 -51 -51 -64 -40 -27
23 -57 220 -35 226 124 33 244 74 296 100 l66 33 58 -78 c32 -43 63 -90 68
-104z m-1548 140 c42 -19 122 -48 179 -64 l104 -29 -2 -66 c-3 -81 -17 -139
-39 -157 -15 -12 -23 -7 -65 41 l-49 54 -33 -31 c-41 -39 -71 -55 -91 -47 -15
6 -56 80 -56 102 0 21 -18 22 -80 6 -55 -14 -64 -14 -77 -1 -13 12 -13 19 0
48 16 39 115 179 127 179 4 0 41 -16 82 -35z"/>
<path d="M11463 7733 c-18 -7 -16 -38 2 -53 18 -15 45 2 45 30 0 14 -23 34
-33 29 -1 0 -8 -3 -14 -6z"/>
<path d="M12580 7725 c-15 -18 -7 -43 16 -52 24 -9 46 24 33 48 -12 23 -32 24
-49 4z"/>
<path d="M11851 7434 c-22 -29 -27 -49 -12 -58 16 -10 41 6 57 36 26 50 -9 68
-45 22z"/>
<path d="M12180 7437 c0 -24 37 -67 58 -67 19 0 14 48 -8 70 -27 27 -50 26
-50 -3z"/>
<path d="M8485 8284 c-244 -37 -453 -111 -605 -214 -74 -51 -198 -181 -242
-255 -112 -185 -128 -418 -43 -629 l26 -65 -32 -98 c-30 -89 -33 -109 -34
-223 0 -115 2 -130 27 -182 35 -75 97 -141 172 -183 55 -30 83 -40 169 -59 15
-4 27 -10 27 -15 0 -5 -35 -31 -77 -57 -242 -149 -320 -239 -243 -279 35 -18
78 -18 181 -1 l76 12 6 -155 c7 -209 37 -307 129 -428 40 -53 44 -63 29 -68
-9 -3 -50 -36 -89 -73 -61 -57 -72 -72 -72 -100 0 -52 32 -59 161 -34 58 12
139 33 181 47 l77 26 83 -23 c74 -20 106 -22 303 -22 198 0 229 2 304 22 l83
23 77 -25 c165 -53 284 -73 321 -54 45 24 38 54 -27 117 -32 31 -73 69 -92 83
l-35 26 32 36 c17 19 46 62 63 94 28 51 42 63 95 91 165 85 338 284 428 491
16 36 45 83 66 105 85 90 96 171 41 289 -24 51 -34 89 -38 143 -7 86 -11 88
-89 37 -65 -43 -116 -101 -151 -169 -35 -68 -37 -167 -4 -242 l23 -52 -23 -33
c-12 -18 -24 -34 -25 -36 -1 -2 -28 17 -61 41 -32 24 -96 68 -143 98 -80 50
-103 69 -95 77 1 2 30 10 64 18 153 35 267 130 311 260 37 107 22 288 -36 434
-12 28 -13 44 -5 58 62 116 88 335 56 477 -69 314 -360 549 -795 646 -77 17
-137 21 -310 24 -118 2 -228 1 -245 -1z m448 -55 c315 -47 572 -173 717 -352
92 -112 160 -289 160 -417 0 -64 -29 -188 -62 -267 l-30 -73 20 -57 c64 -184
73 -315 30 -416 -48 -114 -158 -193 -303 -220 -53 -10 -71 -18 -73 -31 -2 -10
5 -54 17 -99 34 -139 43 -236 39 -414 -4 -147 -8 -177 -30 -238 l-25 -70 -6
107 c-12 188 -68 322 -178 423 -72 65 -135 98 -239 127 -75 20 -108 23 -275
22 -166 0 -200 -3 -269 -22 -120 -34 -184 -70 -257 -142 -109 -108 -158 -238
-160 -425 l-1 -100 -19 43 c-65 140 -64 489 1 717 24 83 22 86 -70 104 -132
25 -236 96 -288 196 -25 47 -27 58 -26 175 0 117 3 132 36 226 35 101 35 101
17 135 -51 96 -64 158 -64 304 1 135 2 143 33 218 108 264 350 442 704 521 62
14 127 27 143 29 66 9 391 6 458 -4z m1076 -1755 c44 -74 35 -147 -25 -214
l-34 -38 -60 15 c-57 15 -60 17 -77 62 -40 103 -11 205 84 298 l57 56 18 -73
c10 -40 27 -88 37 -106z m-2093 -236 c-4 -18 -9 -59 -13 -90 l-6 -57 -51 -11
c-74 -16 -196 -25 -196 -13 0 17 74 80 165 142 50 33 94 61 99 61 5 0 6 -15 2
-32z m1656 -27 c109 -74 168 -122 168 -138 0 -8 -13 -13 -35 -13 -47 0 -179
20 -194 30 -10 6 -40 133 -41 173 0 15 18 6 102 -52z m-617 -26 c277 -75 408
-295 377 -634 l-8 -84 -53 -48 c-61 -57 -167 -110 -277 -141 -70 -19 -104 -21
-299 -21 -195 0 -229 2 -299 21 -108 30 -213 82 -273 137 -59 52 -65 75 -64
235 1 315 155 503 450 550 88 14 376 5 446 -15z m938 -1 c15 -3 27 -8 27 -10
0 -9 -53 -111 -88 -169 -81 -134 -181 -243 -294 -318 -31 -20 -58 -37 -61 -37
-2 0 1 21 8 48 7 26 16 88 20 139 l7 92 72 39 c49 26 90 41 126 44 66 7 95 34
79 75 -8 20 -4 33 18 69 17 26 34 41 43 39 8 -2 27 -7 43 -11z m-315 -159 c2
-1 -13 -12 -32 -23 -38 -22 -46 -20 -46 14 0 21 3 22 38 17 20 -3 38 -7 40 -8z
m-1453 -674 c3 -6 31 -24 62 -42 l57 -33 -102 -27 c-116 -31 -202 -45 -202
-32 0 10 70 79 120 116 37 28 55 33 65 18z m1222 -30 c115 -92 130 -118 61
-107 -64 10 -248 58 -248 65 1 6 120 80 132 80 3 1 28 -16 55 -38z"/>
<path d="M7930 7312 c-71 -35 -71 -140 -1 -176 47 -25 79 -20 117 18 55 55 43
125 -26 161 -37 19 -47 19 -90 -3z"/>
<path d="M9364 7311 c-85 -52 -56 -175 43 -188 32 -4 45 0 71 22 57 48 52 127
-10 165 -41 25 -65 25 -104 1z"/>
<path d="M8284 7115 c-7 -18 11 -42 50 -66 28 -17 28 -19 31 -117 2 -119 24
-186 78 -248 50 -57 105 -73 252 -73 140 0 198 16 246 66 64 66 89 144 89 277
l0 73 40 32 c73 58 41 94 -34 38 -86 -67 -190 -67 -286 -1 -27 19 -53 34 -56
34 -4 0 -21 -11 -38 -23 -48 -37 -77 -50 -125 -57 -61 -10 -117 5 -173 46 -53
38 -66 41 -74 19z m551 -116 c28 -6 71 -10 94 -7 37 3 42 1 47 -19 4 -13 3
-43 0 -67 l-7 -45 -52 24 c-122 57 -287 60 -419 8 l-76 -30 -4 33 c-2 19 -2
49 0 67 4 32 4 32 52 29 58 -5 142 18 190 51 l34 24 44 -28 c25 -16 68 -33 97
-40z m-36 -129 c56 -10 161 -58 161 -72 0 -17 -28 -63 -52 -85 -46 -44 -87
-53 -224 -50 -144 4 -175 14 -218 69 -41 55 -38 69 21 101 82 44 200 58 312
37z"/>
<path d="M7760 7050 c-41 -10 -65 -37 -49 -57 27 -31 152 -43 219 -20 42 14
51 46 19 65 -26 17 -142 24 -189 12z"/>
<path d="M9474 7050 c-37 -12 -59 -34 -49 -51 34 -54 245 -48 263 8 11 36
-139 66 -214 43z"/>
<path d="M8450 4383 c-619 -65 -961 -383 -961 -892 0 -58 -2 -169 -5 -246 -7
-161 5 -233 58 -340 72 -148 247 -288 433 -345 22 -7 44 -16 49 -21 5 -4 -1
-30 -13 -61 -26 -63 -126 -153 -152 -137 -8 5 -29 9 -47 9 -26 0 -35 -5 -42
-25 -5 -14 -7 -32 -4 -40 4 -8 2 -15 -3 -15 -15 0 -33 -47 -33 -83 0 -20 13
-53 36 -87 43 -65 60 -80 91 -80 22 0 23 -3 23 -72 0 -170 54 -312 155 -407
54 -51 54 -52 54 -110 0 -33 6 -71 14 -86 12 -24 12 -32 0 -57 -12 -23 -13
-35 -3 -58 18 -43 71 -60 185 -60 83 0 97 3 120 23 15 12 26 33 26 47 1 14 5
46 11 73 l10 47 224 0 223 0 10 -37 c6 -21 11 -55 11 -75 0 -28 6 -42 26 -57
37 -29 198 -30 261 -1 50 22 65 58 42 99 -13 23 -13 30 0 56 8 17 15 56 16 87
1 49 5 62 29 86 18 20 41 31 68 35 60 8 157 61 217 119 87 83 155 201 206 356
9 28 18 52 20 52 1 0 19 -7 38 -15 87 -36 213 -1 261 72 51 77 58 196 20 308
-35 104 -114 165 -214 165 -168 0 -240 -88 -240 -294 0 -168 -39 -264 -123
-305 -51 -25 -77 -27 -77 -6 0 8 9 15 21 15 33 0 55 17 88 68 50 79 56 105 34
154 -11 24 -24 57 -29 73 -9 29 -12 30 -65 30 -50 0 -59 4 -107 44 -68 56
-110 145 -75 157 291 103 441 234 509 448 l26 81 -7 275 c-7 271 -15 342 -50
448 -31 89 -91 189 -170 280 -37 44 -173 139 -249 176 -202 97 -419 137 -729
134 -100 0 -198 -3 -217 -5z m560 -64 c155 -25 241 -50 349 -100 209 -97 353
-259 421 -474 18 -56 25 -112 33 -280 14 -270 12 -359 -7 -436 -49 -190 -203
-337 -441 -420 -183 -64 -401 -87 -773 -83 -448 5 -710 79 -893 251 -76 72
-139 180 -158 273 -16 74 -5 540 15 630 43 195 137 341 295 457 243 179 715
253 1159 182z m985 -1778 c98 -56 139 -269 71 -372 -35 -52 -82 -72 -157 -67
-43 3 -64 11 -88 31 -40 33 -58 26 -66 -26 -10 -58 -70 -211 -107 -272 -51
-84 -112 -148 -179 -187 -35 -21 -69 -38 -75 -38 -7 0 0 22 17 53 32 60 59
161 59 227 l0 45 58 17 c46 14 68 28 105 66 60 65 77 122 86 292 9 179 31 220
128 246 55 14 105 9 148 -15z m-1900 -51 c-29 -56 -75 -185 -101 -280 -31
-115 -43 -304 -25 -392 29 -139 112 -243 244 -308 140 -69 208 -81 460 -80
233 0 285 7 411 54 280 105 372 355 271 735 -25 93 -89 264 -108 289 -7 8 -5
12 5 12 17 0 56 -81 99 -208 89 -261 92 -498 7 -643 -38 -65 -129 -146 -203
-181 -130 -60 -188 -70 -440 -75 -206 -4 -241 -2 -334 17 -363 74 -506 305
-430 695 30 156 118 395 146 395 11 0 10 -6 -2 -30z m215 -1 c36 -4 97 -8 137
-9 l71 0 44 -52 c103 -124 98 -111 98 -257 l0 -131 -231 0 -231 0 -88 75 -88
76 18 57 c28 87 56 162 80 216 l22 48 51 -7 c29 -4 81 -11 117 -16z m926 -36
c49 -107 94 -256 82 -271 -6 -7 -46 -42 -89 -78 l-77 -64 -231 0 -231 0 0 133
1 132 69 88 70 87 83 1 c45 0 120 6 167 13 136 21 127 23 156 -41z m-456 22
c0 -6 -100 -135 -104 -135 -4 0 -106 129 -106 135 0 3 47 5 105 5 58 0 105 -2
105 -5z m-850 -216 c-11 -35 -25 -92 -31 -126 -15 -88 -32 -91 -87 -14 -37 51
-41 90 -12 116 16 14 19 26 14 48 -3 16 -2 28 2 25 5 -2 21 -10 36 -17 24 -12
30 -11 59 12 19 14 35 25 36 23 1 -1 -6 -31 -17 -67z m1518 38 c21 -20 23 -20
58 -3 l36 17 -6 -28 c-6 -21 -3 -30 15 -43 30 -24 27 -61 -10 -119 -53 -82
-72 -77 -91 24 -7 39 -21 94 -32 124 -10 30 -18 56 -18 58 0 7 23 -8 48 -30z
m-1353 -211 l69 -63 -73 -48 c-100 -63 -101 -64 -101 -24 0 49 22 199 29 199
3 0 37 -29 76 -64z m1265 -113 c0 -29 -2 -53 -5 -53 -8 0 -137 81 -153 95 -11
10 1 24 60 75 l73 63 12 -64 c7 -35 12 -88 13 -116z m-700 -154 l0 -192 -72
-84 -71 -84 -41 6 c-138 21 -281 78 -353 140 -55 47 -114 163 -116 230 l-2 47
100 64 100 64 228 0 227 0 0 -191z m592 125 l105 -67 -8 -41 c-28 -140 -94
-233 -209 -291 -54 -28 -191 -69 -260 -79 l-46 -7 -72 85 -72 85 0 184 c0 101
3 187 7 190 3 4 106 7 228 7 l221 0 106 -66z m-514 -420 l53 -64 -116 0 -117
0 57 65 c32 36 60 65 64 64 3 0 30 -29 59 -65z m-458 -122 c19 -6 55 -16 79
-22 42 -11 43 -12 36 -43 -4 -18 -10 -50 -14 -72 -5 -35 -10 -40 -41 -47 -39
-9 -138 -2 -176 12 -29 11 -30 24 -5 57 20 24 20 25 0 56 -11 18 -19 50 -19
74 l0 42 53 -23 c28 -13 68 -28 87 -34z m935 4 c-4 -22 -13 -51 -21 -63 -18
-29 -18 -42 2 -64 26 -29 10 -46 -52 -59 -63 -13 -163 -5 -168 13 -9 34 -25
131 -22 134 1 2 29 10 60 18 32 9 88 28 125 43 36 16 70 27 74 24 5 -2 5 -23
2 -46z"/>
<path d="M8015 3485 c-46 -24 -65 -52 -65 -99 0 -56 18 -88 64 -110 32 -16 44
-17 76 -7 112 33 121 173 14 217 -42 18 -52 17 -89 -1z"/>
<path d="M9232 3480 c-69 -42 -80 -135 -22 -184 40 -33 80 -40 123 -22 45 18
70 56 70 106 0 50 -25 88 -68 106 -46 19 -64 18 -103 -6z"/>
<path d="M8495 3240 c-9 -15 10 -41 102 -139 77 -82 78 -83 98 -65 39 35 165
184 165 194 0 6 -7 13 -16 17 -12 4 -38 -17 -93 -76 l-76 -83 -73 81 c-71 78
-93 93 -107 71z"/>
<path d="M7765 3210 c-12 -4 -27 -15 -34 -24 -35 -42 72 -85 164 -66 30 6 59
17 65 25 16 20 4 50 -26 63 -28 14 -139 15 -169 2z"/>
<path d="M9425 3211 c-51 -22 -54 -61 -7 -79 74 -29 157 -21 196 17 l20 21
-22 22 c-18 19 -35 23 -95 25 -39 2 -81 -1 -92 -6z"/>
<path d="M1926 4322 c-19 -15 -57 -43 -83 -62 -180 -132 -398 -311 -582 -478
l-53 -49 -158 5 c-151 4 -160 4 -199 -19 -28 -15 -48 -37 -63 -68 -22 -43 -23
-59 -23 -241 l0 -195 -37 -61 c-196 -320 -245 -617 -146 -880 80 -211 261
-401 518 -542 l55 -30 12 -98 c29 -247 88 -374 195 -418 92 -39 170 -10 223
81 l30 51 45 -6 c61 -9 553 -9 612 0 48 8 48 7 68 -30 41 -77 91 -112 160
-112 83 0 159 62 209 170 32 70 61 211 61 302 l0 56 78 42 c104 56 191 120
280 204 162 154 247 315 273 518 25 193 -42 442 -182 675 l-49 82 -3 209 -2
209 -28 36 c-50 65 -70 70 -254 65 -90 -3 -166 -1 -169 3 -36 58 -631 544
-733 599 -15 7 -27 3 -55 -18z m165 -194 c91 -121 236 -338 289 -432 20 -35
27 -57 20 -61 -6 -4 -39 0 -73 9 -127 31 -226 39 -415 33 -137 -4 -211 -11
-276 -26 -58 -14 -93 -18 -100 -11 -17 17 195 345 349 539 94 118 74 123 206
-51z m-332 -30 c-69 -94 -186 -271 -244 -371 -29 -50 -43 -66 -55 -61 -8 4
-46 15 -85 26 -38 11 -78 23 -88 27 -13 5 5 26 90 102 141 124 427 358 440
359 2 0 -24 -37 -58 -82z m626 -128 c167 -139 276 -241 269 -251 -3 -5 -14 -9
-24 -9 -11 0 -53 -11 -94 -24 l-75 -24 -62 102 c-72 117 -165 257 -224 336
-23 30 -45 61 -49 68 -11 18 120 -82 259 -198z m-1185 -291 c82 -13 206 -43
249 -61 l34 -14 -74 -36 c-201 -99 -363 -247 -499 -452 -66 -101 -60 -105 -82
49 -7 50 -13 169 -13 265 0 197 8 229 68 256 35 16 196 13 317 -7z m1848 7
c51 -26 64 -50 74 -138 10 -90 -4 -341 -26 -458 l-12 -65 -20 34 c-79 139
-244 320 -374 413 -68 48 -196 118 -217 118 -33 0 -7 20 50 39 180 59 462 90
525 57z m-836 -71 c327 -57 592 -241 790 -551 117 -183 198 -433 198 -615 1
-361 -250 -581 -765 -671 -152 -26 -615 -37 -789 -18 -503 54 -792 217 -884
499 -30 94 -34 254 -9 368 91 402 377 768 718 915 79 34 204 68 294 81 79 11
368 6 447 -8z m-1410 -635 c1 -43 -6 -75 -36 -149 -103 -257 -107 -494 -13
-680 58 -115 187 -233 331 -302 32 -16 46 -30 49 -48 3 -14 4 -27 3 -29 -7 -6
-177 104 -231 150 -360 304 -419 682 -178 1132 l48 89 12 -54 c7 -30 14 -79
15 -109z m2434 20 c92 -188 118 -304 112 -487 -4 -108 -9 -140 -33 -203 -72
-196 -228 -371 -450 -505 -33 -19 -62 -35 -66 -35 -22 0 22 65 54 80 261 127
396 329 397 591 0 145 -46 343 -108 465 -20 39 -20 42 -4 137 16 96 17 97 34
75 10 -13 38 -66 64 -118z m-1741 -1276 c80 -12 193 -18 415 -22 341 -5 503 8
679 55 160 42 143 45 140 -28 -3 -88 -4 -90 -47 -67 -29 15 -52 19 -107 15
-122 -7 -149 -41 -130 -166 19 -123 72 -148 186 -90 34 17 62 29 64 27 8 -7
-36 -110 -64 -151 -29 -43 -67 -68 -124 -82 -44 -11 -98 31 -128 99 l-24 57
-75 -8 c-100 -11 -536 -10 -627 0 l-71 9 -22 -48 c-40 -92 -85 -122 -153 -103
-60 16 -119 81 -146 160 -11 34 -19 64 -16 67 2 2 29 -10 59 -27 70 -39 106
-40 147 -3 32 29 48 79 49 158 0 68 -55 104 -158 104 -39 0 -67 -6 -90 -20
-18 -11 -35 -20 -37 -20 -3 0 -5 36 -5 79 l0 79 88 -28 c48 -16 137 -36 197
-46z m-93 -84 c58 -17 70 -33 62 -93 -17 -132 -47 -148 -164 -86 -50 27 -80
50 -84 63 -15 55 -3 78 59 110 35 18 75 20 127 6z m1288 -24 c40 -26 43 -40
25 -102 -4 -15 -147 -94 -169 -94 -9 0 -28 11 -41 24 -31 31 -46 149 -22 173
39 39 147 39 207 -1z"/>
<path d="M1900 3471 c-56 -12 -107 -40 -162 -90 -131 -117 -116 -274 35 -357
147 -80 324 -65 440 37 107 94 96 233 -26 333 -82 67 -195 97 -287 77z m190
-57 c118 -54 187 -161 158 -246 -24 -74 -113 -136 -227 -159 -55 -12 -71 -11
-129 4 -214 56 -275 206 -137 341 91 88 223 112 335 60z"/>
<path d="M1462 3070 c-96 -60 47 -153 146 -95 38 23 43 62 12 90 -31 28 -117
31 -158 5z m138 -37 c13 -13 13 -16 -4 -29 -25 -18 -96 -18 -121 0 -16 12 -17
16 -6 29 24 29 101 29 131 0z"/>
<path d="M2345 3081 c-34 -14 -57 -47 -50 -71 18 -55 138 -73 191 -27 21 18
26 29 21 49 -12 45 -104 72 -162 49z m120 -42 c19 -18 -10 -44 -53 -47 -49 -4
-85 13 -80 36 6 29 105 37 133 11z"/>
<path d="M1155 2668 c-75 -58 -63 -163 22 -203 100 -48 203 73 144 168 -36 59
-114 76 -166 35z"/>
<path d="M2664 2680 c-36 -14 -64 -64 -64 -112 0 -36 6 -50 31 -76 38 -38 86
-49 125 -29 44 23 65 51 71 95 12 91 -76 157 -163 122z"/>
<path d="M914 2469 c-79 -23 -58 -78 33 -86 107 -10 168 42 93 79 -38 19 -77
21 -126 7z"/>
<path d="M2914 2471 c-43 -11 -54 -19 -54 -40 0 -33 29 -46 105 -46 75 0 105
13 105 44 0 9 -8 21 -19 28 -25 16 -99 23 -137 14z"/>
<path d="M1940 2420 c-36 -28 -122 -43 -212 -38 l-77 5 17 -30 c25 -43 79 -84
137 -104 37 -14 80 -18 170 -18 103 1 127 4 172 24 48 21 133 98 133 120 0 6
-23 7 -54 4 -86 -9 -180 5 -221 33 -20 13 -37 24 -38 24 -1 0 -13 -9 -27 -20z"/>
<path d="M5363 4095 c-107 -30 -200 -92 -301 -200 -60 -64 -147 -176 -155
-199 -2 -6 -46 1 -118 18 -478 120 -641 -74 -435 -517 l37 -77 -40 -58 c-57
-85 -100 -196 -135 -355 -6 -26 -7 -27 -31 -11 -19 12 -28 14 -39 5 -37 -31
-51 -385 -22 -558 28 -170 95 -334 188 -461 72 -97 198 -211 286 -256 l33 -17
-42 -47 c-177 -202 -48 -249 305 -113 67 26 86 29 115 21 80 -21 285 -41 426
-41 138 0 347 19 438 40 31 8 52 3 130 -26 250 -93 367 -97 367 -13 0 28 -47
104 -89 144 l-30 29 77 51 c251 164 400 425 440 769 14 118 14 157 4 276 -14
146 -27 211 -43 211 -5 0 -20 -7 -33 -15 l-23 -16 -22 93 c-26 110 -76 230
-126 299 l-35 49 29 58 c41 83 77 186 91 269 27 149 -28 252 -155 288 -79 23
-225 15 -355 -19 -52 -14 -100 -26 -107 -26 -7 0 -30 27 -52 59 -59 86 -197
229 -265 272 -114 74 -221 100 -313 74z m222 -74 c103 -51 238 -183 332 -326
34 -50 49 -65 61 -60 9 4 73 20 141 37 105 25 139 29 225 26 125 -4 169 -23
204 -89 21 -38 23 -53 19 -114 -6 -84 -41 -193 -95 -301 l-40 -79 36 -45 c66
-86 117 -217 157 -406 4 -17 -11 -35 -71 -83 l-75 -62 -27 19 c-15 11 -88 65
-162 121 -74 55 -140 101 -146 101 -6 0 -69 -59 -139 -132 l-128 -131 -91 98
c-64 68 -97 97 -108 93 -8 -4 -36 -43 -62 -87 -27 -45 -51 -81 -55 -81 -4 0
-29 23 -56 50 -27 28 -56 50 -65 50 -9 0 -38 -22 -65 -50 -27 -27 -52 -50 -56
-50 -4 0 -29 38 -56 85 -29 52 -54 85 -64 85 -9 0 -56 -43 -104 -95 -54 -60
-91 -92 -99 -87 -6 4 -60 59 -121 122 -60 63 -117 119 -126 124 -14 6 -48 -14
-151 -91 -73 -54 -147 -109 -164 -121 l-32 -22 -75 61 -74 60 14 67 c34 165
72 258 149 363 l33 46 -33 64 c-19 35 -48 104 -65 153 -55 157 -52 253 11 313
45 42 86 53 193 53 83 0 223 -26 344 -65 15 -4 30 11 77 77 31 46 91 118 133
161 176 182 318 226 476 148z m-718 -1451 c69 -71 131 -130 138 -130 8 0 53
43 101 95 l87 95 45 -78 c67 -117 60 -115 137 -47 l66 58 27 -24 c15 -13 44
-39 65 -59 l38 -35 19 23 c10 12 35 53 56 90 20 37 38 69 40 70 1 2 20 -16 41
-39 123 -138 140 -153 159 -144 11 6 69 62 129 125 61 63 116 119 123 123 12
8 26 -1 236 -156 l106 -78 112 91 113 92 8 -44 c12 -69 7 -77 -56 -103 -82
-33 -123 -63 -158 -115 -26 -39 -30 -51 -25 -88 9 -70 71 -175 139 -238 l60
-55 -13 -42 c-21 -71 -79 -178 -139 -256 l-56 -75 -6 40 c-7 50 -21 75 -59
108 -53 44 -97 51 -182 31 -154 -37 -212 -71 -237 -138 -17 -43 -13 -93 14
-197 14 -52 25 -98 25 -102 1 -25 -292 -80 -495 -93 -107 -7 -293 6 -440 30
-101 17 -225 52 -225 63 0 4 11 47 25 97 59 214 18 280 -208 336 -75 19 -94
20 -128 10 -73 -22 -120 -79 -131 -159 -3 -19 -9 -14 -51 37 -49 61 -129 208
-149 273 -10 35 -9 38 22 64 62 52 99 99 132 164 66 132 36 215 -105 284 -39
19 -80 38 -90 41 -16 4 -18 12 -11 62 3 32 8 60 10 61 1 2 53 -37 114 -87 61
-50 115 -89 120 -86 5 3 77 57 162 120 84 63 157 115 161 115 4 0 64 -58 134
-130z m-582 -160 c58 -40 79 -74 71 -118 -9 -56 -56 -139 -110 -194 l-50 -51
-8 28 c-6 24 -2 35 31 70 34 37 91 139 91 163 0 17 -67 70 -115 91 -45 20 -50
27 -39 54 4 12 11 12 46 0 22 -7 60 -27 83 -43z m2445 26 c0 -18 -10 -27 -45
-41 -63 -23 -105 -61 -105 -92 0 -36 38 -107 84 -160 31 -35 37 -48 31 -70
l-6 -26 -50 49 c-50 49 -119 169 -119 206 0 51 56 106 150 146 51 22 60 20 60
-12z m-2530 -96 c21 -11 42 -25 45 -30 11 -18 -2 -53 -36 -100 -23 -32 -33
-40 -39 -29 -10 18 -24 179 -16 179 4 0 24 -9 46 -20z m2525 -72 c-4 -51 -9
-95 -11 -97 -14 -15 -89 110 -80 134 5 13 71 54 90 55 5 0 5 -40 1 -92z
m-2024 -525 c161 -43 182 -79 142 -245 -14 -57 -29 -106 -33 -111 -7 -8 -80
19 -80 29 0 4 12 49 26 101 21 79 24 98 12 108 -18 16 -173 59 -191 52 -16 -6
-27 -51 -27 -114 0 -39 -2 -43 -19 -34 -45 25 -65 58 -62 102 4 57 25 95 64
119 41 26 49 25 168 -7z m1637 13 c44 -23 61 -49 73 -111 l11 -59 -39 -32
c-21 -18 -41 -33 -45 -34 -5 0 -8 27 -8 61 0 67 -12 99 -38 99 -35 -1 -174
-47 -182 -61 -5 -8 2 -52 16 -104 13 -50 24 -93 24 -97 0 -10 -71 -40 -78 -33
-10 10 -52 191 -52 227 0 49 47 105 96 114 19 3 60 15 92 25 70 22 95 23 130
5z m-1668 -147 c37 -8 50 -15 50 -28 0 -15 -20 -91 -35 -138 -3 -9 -17 -5 -47
13 l-43 26 3 69 c2 38 8 69 12 69 5 0 32 -5 60 -11z m1610 -36 c0 -27 3 -57 6
-68 4 -16 -4 -26 -36 -44 -23 -13 -45 -19 -50 -15 -8 9 -40 122 -40 142 0 6
19 15 43 20 76 18 77 17 77 -35z m-1530 -223 c38 -17 83 -33 100 -36 16 -4 30
-10 30 -15 0 -9 -155 -60 -245 -80 -96 -21 -98 11 -7 113 24 26 46 48 49 48 2
0 36 -14 73 -30z m1510 -27 c48 -55 70 -97 57 -110 -14 -14 -317 68 -317 86 0
4 20 12 44 19 25 6 69 23 98 36 29 14 56 25 60 26 3 0 29 -26 58 -57z"/>
<path d="M4888 3214 c-93 -50 -69 -207 35 -228 67 -14 127 25 148 94 30 98
-89 185 -183 134z"/>
<path d="M5867 3211 c-75 -49 -82 -134 -17 -196 52 -50 154 -36 186 27 19 36
18 108 -2 136 -35 51 -116 67 -167 33z"/>
<path d="M5255 3120 c-10 -16 6 -57 31 -81 19 -18 24 -32 24 -75 0 -74 27
-105 98 -112 117 -11 162 18 162 107 0 45 4 60 25 81 31 32 38 83 13 88 -11 2
-22 -9 -33 -32 -21 -44 -42 -51 -94 -30 -38 15 -43 15 -86 -1 -51 -20 -65 -14
-91 37 -14 28 -37 37 -49 18z m230 -108 c47 -12 59 -48 29 -90 -13 -18 -24
-22 -74 -22 -52 0 -62 3 -76 25 -24 37 -12 69 33 88 21 8 45 13 53 10 8 -3 24
-8 35 -11z"/>
<path d="M4616 2976 c-101 -38 -50 -106 79 -106 100 0 161 56 103 94 -35 22
-136 29 -182 12z"/>
<path d="M6126 2979 c-74 -18 -88 -56 -33 -89 67 -41 218 -16 225 38 3 18 -5
26 -40 42 -46 21 -90 23 -152 9z"/>
<path d="M5255 2210 c-50 -25 -52 -28 -126 -212 -66 -164 -71 -208 -35 -263
36 -55 61 -59 323 -49 222 9 241 11 275 32 51 32 76 96 59 153 -10 34 -37 61
-172 177 -161 138 -225 182 -263 182 -12 0 -39 -9 -61 -20z m103 -44 c52 -28
337 -281 346 -308 12 -35 -9 -85 -44 -103 -19 -10 -92 -16 -257 -21 l-231 -7
-26 26 c-17 17 -26 37 -26 58 0 17 28 101 62 186 48 121 67 157 87 168 33 18
56 18 89 1z"/>
<path d="M5302 2053 c-21 -40 -82 -202 -82 -217 0 -14 13 -16 83 -15 45 1 125
4 177 8 83 5 95 8 95 24 0 19 -230 217 -252 217 -7 0 -16 -8 -21 -17z m111
-109 c37 -32 67 -60 67 -64 0 -3 -45 -8 -100 -9 l-100 -2 21 53 c12 29 23 59
26 66 8 19 14 16 86 -44z"/>
<path d="M4524 2178 c-65 -58 -92 -148 -58 -197 18 -25 87 -60 119 -61 38 0
90 20 118 45 50 47 33 139 -41 218 -37 39 -89 38 -138 -5z m118 -45 c26 -29
48 -87 41 -112 -13 -49 -109 -67 -157 -30 -34 27 -34 63 1 116 41 65 74 72
115 26z"/>
<path d="M6215 2176 c-70 -75 -85 -157 -37 -206 41 -41 101 -57 154 -41 59 18
98 60 98 106 0 79 -80 175 -147 175 -28 0 -43 -8 -68 -34z m140 -67 c33 -51
33 -91 -2 -119 -22 -17 -37 -21 -71 -17 -82 9 -104 62 -57 137 44 70 82 70
130 -1z"/>
<path d="M10921 3773 c-63 -125 -110 -342 -111 -505 0 -89 23 -278 44 -358 13
-52 13 -56 -9 -100 -39 -77 -71 -180 -95 -299 -19 -98 -22 -134 -17 -265 6
-168 23 -247 83 -387 38 -91 120 -218 183 -288 l40 -44 -43 -56 c-53 -69 -106
-172 -106 -206 0 -15 11 -37 26 -52 24 -23 31 -25 87 -20 67 5 145 30 278 87
86 37 86 37 120 20 65 -34 244 -92 342 -111 127 -25 449 -27 583 -4 92 17 270
72 336 106 48 25 69 24 126 -5 84 -43 256 -96 309 -96 86 0 115 56 73 147 -22
49 -91 153 -114 172 -14 12 -10 20 37 75 75 85 112 143 162 249 89 187 117
374 91 592 -17 143 -40 227 -93 352 l-35 83 24 102 c20 88 23 129 23 288 0
167 -3 195 -27 290 -15 58 -42 141 -60 185 l-34 80 -99 -1 c-196 -2 -435 -94
-608 -234 l-88 -71 -69 10 c-90 14 -391 14 -482 0 l-70 -11 -37 35 c-168 160
-457 277 -682 277 l-69 0 -19 -37z m314 -47 c149 -41 277 -106 389 -199 l48
-41 -78 -25 -79 -26 -53 38 c-99 72 -231 117 -340 117 -68 0 -64 5 -81 -94
-16 -87 -12 -221 7 -297 l18 -67 -34 -38 c-18 -22 -55 -70 -82 -107 -56 -79
-51 -85 -75 78 -34 232 -9 455 75 649 l21 49 87 -6 c48 -3 128 -17 177 -31z
m1912 -57 c50 -135 73 -266 73 -420 0 -130 -24 -319 -41 -319 -5 0 -14 10 -20
23 -6 12 -34 49 -62 82 -28 33 -57 67 -64 76 -11 13 -11 26 2 80 18 77 20 247
3 335 l-11 64 -65 0 c-114 0 -243 -45 -340 -118 l-54 -40 -36 15 c-21 9 -57
21 -82 28 l-44 11 54 43 c176 140 418 233 590 228 l65 -2 32 -86z m-1104 -237
c11 -66 58 -126 122 -156 85 -41 110 -108 84 -223 -26 -113 -103 -172 -234
-181 -123 -8 -204 38 -255 144 -35 73 -34 212 3 307 15 38 41 86 58 108 l31
39 93 0 92 0 6 -38z m247 28 c431 -68 811 -382 950 -785 46 -131 63 -234 64
-380 2 -234 -57 -423 -187 -605 -121 -169 -281 -280 -552 -385 -189 -73 -276
-88 -520 -88 -237 -1 -321 12 -495 76 -199 73 -325 141 -439 238 -184 155
-313 421 -336 689 -12 138 26 358 88 510 113 275 352 519 626 639 100 44 281
98 281 84 0 -3 -9 -20 -20 -38 -50 -81 -76 -214 -61 -317 12 -88 44 -150 104
-204 64 -57 128 -78 221 -71 142 11 206 49 257 152 28 57 33 78 33 143 1 104
-27 153 -110 197 -61 31 -103 86 -104 133 0 21 4 22 68 22 37 0 96 -5 132 -10z
m-1153 -2014 c32 -24 83 -57 113 -74 l54 -31 -34 -15 c-171 -70 -241 -91 -295
-84 -28 3 -30 6 -27 38 1 19 17 57 34 85 32 50 89 125 95 125 1 0 29 -20 60
-44z m1914 -8 c51 -65 89 -139 89 -174 0 -27 0 -27 -62 -22 -56 5 -170 42
-266 86 l-33 15 48 26 c62 34 135 85 152 105 20 24 27 21 72 -36z"/>
<path d="M11783 2433 c-24 -9 -13 -41 27 -77 22 -20 40 -42 40 -50 0 -8 14
-54 31 -103 33 -91 80 -169 109 -178 40 -13 92 -8 118 12 34 25 93 141 110
218 11 49 22 69 60 108 44 45 45 48 28 65 -16 16 -18 16 -38 -8 -49 -61 -122
-77 -193 -43 -33 16 -37 16 -70 0 -20 -9 -56 -17 -81 -17 -38 0 -51 6 -87 39
-23 21 -48 36 -54 34z m290 -108 c20 -8 52 -15 72 -15 19 0 35 -3 35 -7 0 -5
-9 -36 -20 -70 -48 -154 -106 -208 -164 -150 -22 22 -77 144 -90 200 -6 26 -5
27 31 27 29 1 76 14 99 29 1 1 18 -6 37 -14z"/>
<path d="M11408 2407 c-92 -75 -41 -227 75 -227 69 0 127 80 113 155 -4 21
-20 45 -42 64 -44 39 -105 43 -146 8z"/>
<path d="M12524 2396 c-29 -29 -34 -41 -34 -79 0 -63 14 -94 52 -117 39 -24
78 -25 118 -5 39 20 60 63 60 121 0 39 -5 51 -34 80 -29 29 -41 34 -81 34 -40
0 -52 -5 -81 -34z"/>
<path d="M11118 2214 c-63 -26 -63 -85 0 -111 50 -21 146 -19 185 4 24 14 33
27 35 51 3 30 -1 34 -40 52 -52 23 -128 25 -180 4z"/>
<path d="M12788 2214 c-97 -40 -42 -124 81 -124 108 0 171 44 137 95 -29 44
-145 59 -218 29z"/>
<path d="M11704 2101 c-51 -13 -91 -48 -118 -105 -31 -65 -53 -77 -79 -42 -19
26 -41 34 -51 18 -3 -5 17 -60 44 -123 52 -119 61 -159 35 -159 -27 0 -108 46
-183 104 -75 58 -96 66 -105 42 -13 -33 228 -196 289 -196 40 0 67 36 61 81
-4 32 -1 41 14 50 15 8 26 6 47 -9 64 -45 143 -33 210 31 69 66 69 186 0 256
-46 47 -105 66 -164 52z m83 -71 c9 0 13 -6 10 -14 -3 -8 1 -20 10 -28 13 -10
17 -10 20 0 3 6 9 12 15 12 6 0 5 -7 -3 -16 -9 -11 -9 -18 -2 -22 6 -4 12 -28
14 -54 2 -25 1 -44 -3 -42 -3 2 -8 0 -10 -5 -1 -5 -14 -3 -28 5 l-25 14 25 -5
c23 -5 25 -3 24 25 -2 53 -4 58 -20 64 -8 3 -12 2 -9 -4 4 -6 -6 -10 -22 -10
-22 0 -25 2 -13 10 13 9 13 10 0 11 -8 1 -19 1 -23 0 -5 -1 -6 3 -2 9 3 6 -4
11 -17 11 -17 1 -18 3 -5 6 9 2 17 14 17 25 0 14 5 18 16 14 9 -3 22 -6 31 -6z
m-113 -44 c-4 -10 2 -12 20 -9 16 3 26 1 26 -6 0 -6 -10 -11 -22 -11 -20 0
-23 -6 -25 -38 -2 -34 0 -38 20 -38 13 1 22 -5 22 -14 0 -9 -10 -14 -25 -14
-18 0 -27 7 -35 28 -7 22 -7 30 3 33 14 5 17 33 3 33 -5 0 -12 -6 -14 -12 -3
-8 -6 -6 -6 5 -1 9 4 17 10 17 5 0 7 5 4 10 -7 12 2 30 15 30 5 0 7 -6 4 -14z
m106 -111 c0 -8 4 -15 9 -15 5 0 9 -11 9 -25 0 -14 -5 -25 -10 -25 -5 0 -6 -6
-2 -12 6 -10 4 -10 -8 0 -9 7 -20 12 -24 11 -27 -5 -43 2 -38 16 8 20 40 19
54 -2 11 -17 11 -17 6 0 -3 10 -6 23 -6 28 0 6 -4 8 -9 5 -5 -4 -7 3 -4 14 6
23 23 27 23 5z m-190 -43 c0 -15 -2 -15 -10 -2 -13 20 -13 33 0 25 6 -3 10
-14 10 -23z"/>
<path d="M11760 2005 c0 -8 4 -15 10 -15 5 0 7 7 4 15 -4 8 -8 15 -10 15 -2 0
-4 -7 -4 -15z"/>
<path d="M12583 1968 c-27 -34 -85 -185 -90 -234 -6 -59 12 -94 48 -94 70 0
316 165 295 198 -13 21 -35 13 -98 -38 -98 -79 -188 -124 -202 -102 -9 14 22
109 61 186 19 37 32 74 29 82 -7 17 -30 18 -43 2z"/>
</g>
</svg>
