<svg width="40" height="40" viewBox="0 0 40 40" fill="none" xmlns="http://www.w3.org/2000/svg">
<path d="M11.6667 30V28.3333C11.6667 23.731 15.3977 20 20 20C24.6024 20 28.3334 23.731 28.3334 28.3333V30" stroke="white" stroke-width="1.5" stroke-linecap="round"/>
<path d="M20 20C22.7615 20 25 17.7615 25 15C25 12.2386 22.7615 10 20 10C17.2385 10 15 12.2386 15 15C15 17.7615 17.2385 20 20 20Z" stroke="white" stroke-width="1.5" stroke-linecap="round" stroke-linejoin="round"/>
<path d="M20 36.6667C29.2047 36.6667 36.6666 29.2048 36.6666 20C36.6666 10.7953 29.2047 3.33334 20 3.33334C10.7952 3.33334 3.33331 10.7953 3.33331 20C3.33331 29.2048 10.7952 36.6667 20 36.6667Z" stroke="white" stroke-width="1.5"/>
</svg>
