<svg width="35" height="35" viewBox="0 0 35 35" fill="none" xmlns="http://www.w3.org/2000/svg">
<path d="M4.375 13.125V27.7083C4.375 29.3192 5.68084 30.625 7.29167 30.625H27.7083C29.3192 30.625 30.625 29.3192 30.625 27.7083V13.125" stroke="black" stroke-width="1.5"/>
<path d="M29.874 4.375H24.0527L24.7819 11.6667C24.7819 11.6667 26.2402 13.125 28.4277 13.125C29.9984 13.125 31.0678 12.3732 31.5461 11.9491C31.7367 11.7802 31.8064 11.5222 31.7645 11.2709L30.737 5.10615C30.6667 4.68424 30.3017 4.375 29.874 4.375Z" stroke="black" stroke-width="1.5"/>
<path d="M24.0527 4.375L24.7819 11.6667C24.7819 11.6667 23.3236 13.125 21.1361 13.125C18.9486 13.125 17.4902 11.6667 17.4902 11.6667V4.375H24.0527Z" stroke="black" stroke-width="1.5"/>
<path d="M17.4902 4.375V11.6667C17.4902 11.6667 16.0319 13.125 13.8444 13.125C11.6569 13.125 10.1985 11.6667 10.1985 11.6667L10.9277 4.375H17.4902Z" stroke="black" stroke-width="1.5"/>
<path d="M10.9277 4.375H5.10647C4.67874 4.375 4.3137 4.68424 4.24338 5.10615L3.21591 11.2709C3.17404 11.5222 3.2438 11.7802 3.4344 11.9491C3.91262 12.3732 4.98204 13.125 6.55271 13.125C8.74021 13.125 10.1986 11.6667 10.1986 11.6667L10.9277 4.375Z" stroke="black" stroke-width="1.5"/>
</svg>
