<svg width="35" height="35" viewBox="0 0 35 35" fill="none" xmlns="http://www.w3.org/2000/svg">
<path d="M16.0416 13.125H18.9583V8.75001H23.3333V5.83334H18.9583V1.45834H16.0416V5.83334H11.6666V8.75001H16.0416V13.125ZM10.2083 26.25C9.4347 26.25 8.69284 26.5573 8.14586 27.1043C7.59888 27.6513 7.29159 28.3931 7.29159 29.1667C7.29159 29.9402 7.59888 30.6821 8.14586 31.2291C8.69284 31.7761 9.4347 32.0833 10.2083 32.0833C10.9818 32.0833 11.7237 31.7761 12.2706 31.2291C12.8176 30.6821 13.1249 29.9402 13.1249 29.1667C13.1249 28.3931 12.8176 27.6513 12.2706 27.1043C11.7237 26.5573 10.9818 26.25 10.2083 26.25ZM24.7916 26.25C24.018 26.25 23.2762 26.5573 22.7292 27.1043C22.1822 27.6513 21.8749 28.3931 21.8749 29.1667C21.8749 29.9402 22.1822 30.6821 22.7292 31.2291C23.2762 31.7761 24.018 32.0833 24.7916 32.0833C25.5651 32.0833 26.307 31.7761 26.854 31.2291C27.401 30.6821 27.7083 29.9402 27.7083 29.1667C27.7083 28.3931 27.401 27.6513 26.854 27.1043C26.307 26.5573 25.5651 26.25 24.7916 26.25ZM10.4562 21.5104L10.4999 21.3354L11.8124 18.9583H22.677C23.7708 18.9583 24.7333 18.3604 25.2291 17.4563L30.8583 7.23334L28.3208 5.83334H28.3062L26.702 8.75001L22.677 16.0417H12.4395L12.2499 15.6479L8.98325 8.75001L7.59784 5.83334L6.227 2.91668H1.45825V5.83334H4.37492L9.62492 16.9021L7.65617 20.475C7.42284 20.8833 7.29159 21.3646 7.29159 21.875C7.29159 22.6486 7.59888 23.3904 8.14586 23.9374C8.69284 24.4844 9.4347 24.7917 10.2083 24.7917H27.7083V21.875H10.8208C10.6312 21.875 10.4562 21.7146 10.4562 21.5104Z" fill="black"></path>
</svg>
