<svg width="388" height="145" viewBox="0 0 388 145" fill="none" xmlns="http://www.w3.org/2000/svg">
<g clip-path="url(#clip0_51_48)">
<path d="M11.5966 108L13.2869 97.8182H16.7273C17.5227 97.8182 18.1508 97.9607 18.6115 98.2457C19.0755 98.5308 19.3887 98.9169 19.5511 99.4041C19.7169 99.8913 19.75 100.437 19.6506 101.04C19.5511 101.636 19.3374 102.18 19.0092 102.67C18.6844 103.161 18.2436 103.552 17.6868 103.844C17.1333 104.135 16.4621 104.281 15.6733 104.281H13.2074L13.3864 103.188H15.8125C16.3561 103.188 16.8101 103.093 17.1747 102.904C17.5393 102.715 17.8243 102.458 18.0298 102.134C18.2353 101.809 18.3712 101.444 18.4375 101.04C18.5038 100.629 18.4872 100.264 18.3878 99.946C18.2917 99.6245 18.0911 99.3726 17.7862 99.1903C17.4846 99.0047 17.0587 98.9119 16.5085 98.9119H14.3409L12.8295 108H11.5966ZM22.5378 108.179C22.0539 108.179 21.6297 108.088 21.2651 107.906C20.9005 107.72 20.6304 107.453 20.4547 107.105C20.2791 106.754 20.231 106.33 20.3105 105.832C20.3868 105.395 20.5343 105.04 20.753 104.768C20.9718 104.493 21.2369 104.278 21.5485 104.122C21.8633 103.963 22.2014 103.845 22.5627 103.769C22.9273 103.69 23.2902 103.628 23.6515 103.585C24.1221 103.526 24.5049 103.479 24.7999 103.446C25.0949 103.413 25.3169 103.358 25.4661 103.282C25.6152 103.206 25.7064 103.075 25.7395 102.889V102.849C25.8191 102.362 25.7544 101.983 25.5456 101.711C25.3368 101.436 24.964 101.298 24.427 101.298C23.8702 101.298 23.4045 101.421 23.03 101.666C22.6555 101.911 22.3787 102.173 22.1998 102.452L21.1657 102.054C21.4374 101.59 21.7623 101.229 22.1401 100.97C22.5179 100.708 22.914 100.526 23.3283 100.423C23.7426 100.317 24.142 100.264 24.5265 100.264C24.7717 100.264 25.0485 100.294 25.3567 100.354C25.665 100.41 25.9533 100.528 26.2218 100.707C26.4935 100.886 26.6974 101.156 26.8333 101.517C26.9725 101.878 26.9924 102.362 26.8929 102.969L26.0577 108H24.8844L25.0634 106.966H25.0037C24.8977 107.132 24.7353 107.309 24.5165 107.498C24.3011 107.687 24.0276 107.848 23.6962 107.98C23.3681 108.113 22.9819 108.179 22.5378 108.179ZM22.8759 107.125C23.3399 107.125 23.7459 107.034 24.0939 106.852C24.4453 106.669 24.727 106.434 24.9391 106.146C25.1545 105.857 25.2888 105.554 25.3418 105.236L25.5208 104.162C25.4611 104.222 25.3435 104.276 25.1678 104.326C24.9921 104.372 24.7933 104.414 24.5712 104.45C24.3525 104.483 24.1387 104.513 23.9299 104.54C23.7244 104.563 23.5587 104.583 23.4327 104.599C23.1212 104.639 22.8245 104.704 22.5428 104.793C22.2644 104.879 22.0291 105.01 21.8368 105.186C21.6479 105.358 21.5302 105.594 21.4838 105.892C21.4142 106.3 21.512 106.608 21.7772 106.817C22.0423 107.022 22.4086 107.125 22.8759 107.125ZM30.8043 111.023C30.2343 111.023 29.757 110.95 29.3725 110.804C28.988 110.661 28.6798 110.473 28.4478 110.237C28.2158 110.005 28.0401 109.757 27.9208 109.491L28.9748 108.835C29.0543 108.974 29.1571 109.134 29.283 109.312C29.409 109.495 29.5996 109.652 29.8548 109.785C30.1133 109.921 30.4762 109.989 30.9435 109.989C31.5567 109.989 32.0936 109.839 32.5543 109.541C33.015 109.243 33.3001 108.776 33.4094 108.139L33.6481 106.588H33.5487C33.4426 106.727 33.2951 106.9 33.1062 107.105C32.9173 107.307 32.6637 107.488 32.3455 107.647C32.0273 107.803 31.6197 107.881 31.1225 107.881C30.5027 107.881 29.9724 107.735 29.5316 107.443C29.0908 107.152 28.7743 106.727 28.582 106.17C28.3931 105.614 28.3649 104.937 28.4975 104.142C28.6268 103.36 28.8754 102.679 29.2433 102.099C29.6145 101.515 30.0719 101.065 30.6154 100.746C31.159 100.425 31.7522 100.264 32.3952 100.264C32.8924 100.264 33.2736 100.347 33.5387 100.513C33.8072 100.675 34.0027 100.861 34.1254 101.07C34.248 101.275 34.3408 101.444 34.4038 101.577H34.5231L34.7219 100.364H35.8555L34.5629 108.219C34.4535 108.875 34.2165 109.409 33.8519 109.82C33.4873 110.234 33.0399 110.537 32.5096 110.729C31.9793 110.925 31.4109 111.023 30.8043 111.023ZM31.4208 106.827C31.8881 106.827 32.3041 106.719 32.6687 106.504C33.0366 106.288 33.3415 105.978 33.5835 105.574C33.8254 105.17 33.9928 104.686 34.0856 104.122C34.1784 103.572 34.1718 103.086 34.0657 102.665C33.9596 102.245 33.7591 101.915 33.4641 101.676C33.1725 101.437 32.7897 101.318 32.3157 101.318C31.8152 101.318 31.3827 101.444 31.0181 101.696C30.6568 101.948 30.3635 102.286 30.1381 102.71C29.9128 103.134 29.757 103.605 29.6708 104.122C29.5846 104.652 29.5879 105.121 29.6808 105.529C29.7736 105.933 29.9625 106.252 30.2475 106.484C30.5359 106.712 30.927 106.827 31.4208 106.827ZM39.8825 108.159C39.1798 108.159 38.5915 107.992 38.1175 107.657C37.6436 107.322 37.3088 106.853 37.1133 106.25C36.921 105.647 36.8896 104.944 37.0188 104.142C37.1448 103.36 37.395 102.679 37.7695 102.099C38.1474 101.515 38.6164 101.065 39.1765 100.746C39.7399 100.425 40.3597 100.264 41.0359 100.264C41.7385 100.264 42.3252 100.433 42.7958 100.771C43.2698 101.106 43.6045 101.577 43.8001 102.183C43.9956 102.786 44.0288 103.492 43.8995 104.301C43.7736 105.077 43.52 105.754 43.1388 106.335C42.761 106.911 42.292 107.36 41.7319 107.682C41.1751 108 40.5586 108.159 39.8825 108.159ZM39.9023 107.105C40.4393 107.105 40.9049 106.968 41.2994 106.692C41.6971 106.417 42.0186 106.054 42.2638 105.604C42.5124 105.153 42.6798 104.666 42.766 104.142C42.8455 103.645 42.8422 103.183 42.756 102.755C42.6699 102.324 42.4859 101.978 42.2042 101.716C41.9225 101.451 41.5264 101.318 41.016 101.318C40.479 101.318 40.0101 101.457 39.609 101.736C39.2113 102.014 38.8898 102.38 38.6445 102.835C38.3993 103.289 38.2352 103.777 38.1523 104.301C38.0728 104.798 38.0745 105.261 38.1573 105.688C38.2435 106.112 38.4274 106.455 38.7092 106.717C38.9942 106.976 39.3919 107.105 39.9023 107.105ZM51.4874 102.074L50.3738 102.372C50.334 102.193 50.2644 102.021 50.165 101.855C50.0688 101.686 49.9197 101.549 49.7175 101.442C49.5186 101.333 49.2469 101.278 48.9022 101.278C48.4348 101.278 48.0288 101.386 47.6841 101.602C47.3394 101.814 47.1422 102.084 47.0925 102.412C47.0428 102.7 47.1091 102.931 47.2914 103.103C47.4737 103.275 47.7786 103.416 48.2061 103.526L49.2999 103.804C49.9561 103.973 50.4235 104.227 50.7019 104.565C50.9836 104.899 51.0797 105.335 50.9902 105.872C50.9173 106.31 50.7267 106.701 50.4185 107.045C50.1103 107.39 49.7159 107.662 49.2353 107.861C48.7547 108.06 48.2194 108.159 47.6294 108.159C46.8439 108.159 46.2241 107.99 45.7701 107.652C45.316 107.311 45.074 106.817 45.0442 106.17L46.2175 105.892C46.2473 106.3 46.3932 106.608 46.655 106.817C46.9202 107.022 47.2914 107.125 47.7686 107.125C48.3155 107.125 48.7712 107.009 49.1358 106.777C49.5004 106.542 49.7076 106.26 49.7573 105.932C49.807 105.663 49.754 105.44 49.5982 105.261C49.4457 105.082 49.1806 104.947 48.8027 104.858L47.5897 104.56C46.9135 104.391 46.4396 104.132 46.1678 103.784C45.8993 103.436 45.8098 102.999 45.8993 102.472C45.9722 102.041 46.1578 101.66 46.4561 101.328C46.7578 100.997 47.1356 100.737 47.5897 100.548C48.0471 100.359 48.5442 100.264 49.0811 100.264C49.8368 100.264 50.4019 100.43 50.7765 100.761C51.151 101.089 51.388 101.527 51.4874 102.074ZM62.7393 102.074L61.6257 102.372C61.5859 102.193 61.5163 102.021 61.4169 101.855C61.3208 101.686 61.1716 101.549 60.9695 101.442C60.7706 101.333 60.4988 101.278 60.1541 101.278C59.6868 101.278 59.2808 101.386 58.9361 101.602C58.5914 101.814 58.3942 102.084 58.3445 102.412C58.2947 102.7 58.361 102.931 58.5433 103.103C58.7256 103.275 59.0305 103.416 59.4581 103.526L60.5518 103.804C61.2081 103.973 61.6754 104.227 61.9538 104.565C62.2356 104.899 62.3317 105.335 62.2422 105.872C62.1693 106.31 61.9787 106.701 61.6705 107.045C61.3622 107.39 60.9678 107.662 60.4872 107.861C60.0066 108.06 59.4714 108.159 58.8814 108.159C58.0959 108.159 57.4761 107.99 57.022 107.652C56.5679 107.311 56.326 106.817 56.2962 106.17L57.4695 105.892C57.4993 106.3 57.6451 106.608 57.907 106.817C58.1721 107.022 58.5433 107.125 59.0206 107.125C59.5675 107.125 60.0232 107.009 60.3878 106.777C60.7524 106.542 60.9595 106.26 61.0092 105.932C61.0589 105.663 61.0059 105.44 60.8501 105.261C60.6977 105.082 60.4325 104.947 60.0547 104.858L58.8416 104.56C58.1655 104.391 57.6915 104.132 57.4197 103.784C57.1513 103.436 57.0618 102.999 57.1513 102.472C57.2242 102.041 57.4098 101.66 57.7081 101.328C58.0097 100.997 58.3875 100.737 58.8416 100.548C59.299 100.359 59.7962 100.264 60.3331 100.264C61.0888 100.264 61.6539 100.43 62.0284 100.761C62.4029 101.089 62.6399 101.527 62.7393 102.074ZM66.8322 108.159C66.0997 108.159 65.4949 107.997 65.0176 107.672C64.5403 107.344 64.2072 106.886 64.0183 106.3C63.8294 105.71 63.7995 105.024 63.9288 104.241C64.0581 103.459 64.3149 102.77 64.6994 102.173C65.0839 101.573 65.5628 101.106 66.1362 100.771C66.7096 100.433 67.3393 100.264 68.0254 100.264C68.4231 100.264 68.8059 100.33 69.1738 100.463C69.5417 100.596 69.8599 100.811 70.1284 101.109C70.3968 101.404 70.5841 101.795 70.6902 102.283C70.7962 102.77 70.7896 103.37 70.6703 104.082L70.5907 104.58H64.7044L64.8635 103.565H69.5566C69.6329 103.134 69.613 102.75 69.497 102.412C69.3843 102.074 69.1871 101.807 68.9054 101.612C68.627 101.416 68.274 101.318 67.8464 101.318C67.4056 101.318 66.9946 101.437 66.6135 101.676C66.2323 101.911 65.9141 102.21 65.6589 102.571C65.4037 102.929 65.2446 103.294 65.1816 103.665L65.0424 104.54C64.943 105.173 64.9579 105.677 65.0872 106.051C65.2198 106.426 65.4501 106.696 65.7782 106.862C66.1064 107.024 66.5173 107.105 67.0112 107.105C67.3261 107.105 67.6161 107.062 67.8812 106.976C68.1464 106.886 68.3833 106.754 68.5922 106.578C68.801 106.399 68.9766 106.177 69.1191 105.912L70.193 106.23C70.0107 106.615 69.7538 106.953 69.4224 107.244C69.0943 107.533 68.7098 107.758 68.269 107.92C67.8315 108.08 67.3526 108.159 66.8322 108.159ZM74.4313 111.023C73.8612 111.023 73.3839 110.95 72.9995 110.804C72.615 110.661 72.3068 110.473 72.0748 110.237C71.8427 110.005 71.6671 109.757 71.5478 109.491L72.6017 108.835C72.6813 108.974 72.784 109.134 72.91 109.312C73.0359 109.495 73.2265 109.652 73.4817 109.785C73.7402 109.921 74.1032 109.989 74.5705 109.989C75.1837 109.989 75.7206 109.839 76.1813 109.541C76.642 109.243 76.927 108.776 77.0364 108.139L77.275 106.588H77.1756C77.0695 106.727 76.9221 106.9 76.7331 107.105C76.5442 107.307 76.2907 107.488 75.9725 107.647C75.6543 107.803 75.2466 107.881 74.7495 107.881C74.1297 107.881 73.5994 107.735 73.1586 107.443C72.7177 107.152 72.4012 106.727 72.209 106.17C72.0201 105.614 71.9919 104.937 72.1245 104.142C72.2537 103.36 72.5023 102.679 72.8702 102.099C73.2414 101.515 73.6988 101.065 74.2424 100.746C74.7859 100.425 75.3792 100.264 76.0222 100.264C76.5194 100.264 76.9005 100.347 77.1657 100.513C77.4341 100.675 77.6297 100.861 77.7523 101.07C77.8749 101.275 77.9677 101.444 78.0307 101.577H78.15L78.3489 100.364H79.4824L78.1898 108.219C78.0804 108.875 77.8435 109.409 77.4789 109.82C77.1143 110.234 76.6668 110.537 76.1365 110.729C75.6062 110.925 75.0378 111.023 74.4313 111.023ZM75.0478 106.827C75.5151 106.827 75.931 106.719 76.2956 106.504C76.6635 106.288 76.9685 105.978 77.2104 105.574C77.4524 105.17 77.6197 104.686 77.7125 104.122C77.8053 103.572 77.7987 103.086 77.6926 102.665C77.5866 102.245 77.3861 101.915 77.0911 101.676C76.7994 101.437 76.4166 101.318 75.9426 101.318C75.4422 101.318 75.0096 101.444 74.6451 101.696C74.2838 101.948 73.9905 102.286 73.7651 102.71C73.5397 103.134 73.3839 103.605 73.2978 104.122C73.2116 104.652 73.2149 105.121 73.3077 105.529C73.4005 105.933 73.5894 106.252 73.8745 106.484C74.1628 106.712 74.5539 106.827 75.0478 106.827ZM85.687 104.878L86.4426 100.364H87.6159L86.3432 108H85.1699L85.3887 106.707H85.3091C85.0705 107.095 84.7374 107.425 84.3098 107.697C83.8823 107.965 83.3801 108.099 82.8034 108.099C82.3262 108.099 81.9185 107.995 81.5804 107.786C81.2457 107.574 81.007 107.256 80.8645 106.832C80.7253 106.404 80.7087 105.866 80.8148 105.216L81.6301 100.364H82.8034L82.008 105.136C81.9185 105.693 82.003 106.137 82.2615 106.469C82.5201 106.8 82.8929 106.966 83.3801 106.966C83.6718 106.966 83.9801 106.891 84.3049 106.742C84.633 106.593 84.9247 106.364 85.1799 106.056C85.4384 105.748 85.6074 105.355 85.687 104.878ZM88.4922 108L89.7649 100.364H90.8984L90.6996 101.517H90.7791C90.978 101.139 91.2812 100.833 91.6889 100.597C92.0966 100.362 92.5291 100.244 92.9865 100.244C93.076 100.244 93.1837 100.246 93.3097 100.249C93.4356 100.249 93.5334 100.254 93.603 100.264L93.4041 101.457C93.3643 101.447 93.2749 101.433 93.1357 101.413C92.9964 101.389 92.8473 101.378 92.6882 101.378C92.317 101.378 91.974 101.456 91.6591 101.612C91.3442 101.764 91.0807 101.976 90.8686 102.248C90.6565 102.516 90.5206 102.823 90.4609 103.168L89.6655 108H88.4922ZM96.6481 108.159C95.9454 108.159 95.3571 107.992 94.8832 107.657C94.4092 107.322 94.0745 106.853 93.8789 106.25C93.6867 105.647 93.6552 104.944 93.7844 104.142C93.9104 103.36 94.1606 102.679 94.5352 102.099C94.913 101.515 95.382 101.065 95.9421 100.746C96.5056 100.425 97.1254 100.264 97.8015 100.264C98.5041 100.264 99.0908 100.433 99.5614 100.771C100.035 101.106 100.37 101.577 100.566 102.183C100.761 102.786 100.794 103.492 100.665 104.301C100.539 105.077 100.286 105.754 99.9045 106.335C99.5266 106.911 99.0576 107.36 98.4975 107.682C97.9407 108 97.3242 108.159 96.6481 108.159ZM96.668 107.105C97.2049 107.105 97.6706 106.968 98.065 106.692C98.4627 106.417 98.7842 106.054 99.0295 105.604C99.2781 105.153 99.4454 104.666 99.5316 104.142C99.6112 103.645 99.6078 103.183 99.5217 102.755C99.4355 102.324 99.2515 101.978 98.9698 101.716C98.6881 101.451 98.292 101.318 97.7816 101.318C97.2447 101.318 96.7757 101.457 96.3746 101.736C95.9769 102.014 95.6554 102.38 95.4102 102.835C95.1649 103.289 95.0008 103.777 94.918 104.301C94.8384 104.798 94.8401 105.261 94.9229 105.688C95.0091 106.112 95.1931 106.455 95.4748 106.717C95.7598 106.976 96.1576 107.105 96.668 107.105ZM108.253 102.074L107.139 102.372C107.1 102.193 107.03 102.021 106.931 101.855C106.834 101.686 106.685 101.549 106.483 101.442C106.284 101.333 106.012 101.278 105.668 101.278C105.2 101.278 104.794 101.386 104.45 101.602C104.105 101.814 103.908 102.084 103.858 102.412C103.808 102.7 103.875 102.931 104.057 103.103C104.239 103.275 104.544 103.416 104.972 103.526L106.066 103.804C106.722 103.973 107.189 104.227 107.468 104.565C107.749 104.899 107.845 105.335 107.756 105.872C107.683 106.31 107.492 106.701 107.184 107.045C106.876 107.39 106.481 107.662 106.001 107.861C105.52 108.06 104.985 108.159 104.395 108.159C103.61 108.159 102.99 107.99 102.536 107.652C102.082 107.311 101.84 106.817 101.81 106.17L102.983 105.892C103.013 106.3 103.159 106.608 103.421 106.817C103.686 107.022 104.057 107.125 104.534 107.125C105.081 107.125 105.537 107.009 105.901 106.777C106.266 106.542 106.473 106.26 106.523 105.932C106.573 105.663 106.52 105.44 106.364 105.261C106.211 105.082 105.946 104.947 105.568 104.858L104.355 104.56C103.679 104.391 103.205 104.132 102.933 103.784C102.665 103.436 102.575 102.999 102.665 102.472C102.738 102.041 102.923 101.66 103.222 101.328C103.523 100.997 103.901 100.737 104.355 100.548C104.813 100.359 105.31 100.264 105.847 100.264C106.602 100.264 107.168 100.43 107.542 100.761C107.917 101.089 108.154 101.527 108.253 102.074Z" fill="black"/>
<path d="M137.16 108L138.85 97.8182H142.291C143.086 97.8182 143.714 97.9607 144.175 98.2457C144.639 98.5308 144.952 98.9169 145.115 99.4041C145.28 99.8913 145.313 100.437 145.214 101.04C145.115 101.636 144.901 102.18 144.573 102.67C144.248 103.161 143.807 103.552 143.25 103.844C142.697 104.135 142.026 104.281 141.237 104.281H138.771L138.95 103.188H141.376C141.92 103.188 142.374 103.093 142.738 102.904C143.103 102.715 143.388 102.458 143.593 102.134C143.799 101.809 143.935 101.444 144.001 101.04C144.067 100.629 144.051 100.264 143.951 99.946C143.855 99.6245 143.655 99.3726 143.35 99.1903C143.048 99.0047 142.622 98.9119 142.072 98.9119H139.904L138.393 108H137.16ZM145.874 108L147.147 100.364H148.28L148.081 101.517H148.161C148.36 101.139 148.663 100.833 149.071 100.597C149.478 100.362 149.911 100.244 150.368 100.244C150.458 100.244 150.566 100.246 150.691 100.249C150.817 100.249 150.915 100.254 150.985 100.264L150.786 101.457C150.746 101.447 150.657 101.433 150.517 101.413C150.378 101.389 150.229 101.378 150.07 101.378C149.699 101.378 149.356 101.456 149.041 101.612C148.726 101.764 148.463 101.976 148.25 102.248C148.038 102.516 147.902 102.823 147.843 103.168L147.047 108H145.874ZM154.03 108.159C153.327 108.159 152.739 107.992 152.265 107.657C151.791 107.322 151.456 106.853 151.261 106.25C151.069 105.647 151.037 104.944 151.166 104.142C151.292 103.36 151.542 102.679 151.917 102.099C152.295 101.515 152.764 101.065 153.324 100.746C153.887 100.425 154.507 100.264 155.183 100.264C155.886 100.264 156.473 100.433 156.943 100.771C157.417 101.106 157.752 101.577 157.948 102.183C158.143 102.786 158.176 103.492 158.047 104.301C157.921 105.077 157.667 105.754 157.286 106.335C156.908 106.911 156.439 107.36 155.879 107.682C155.323 108 154.706 108.159 154.03 108.159ZM154.05 107.105C154.587 107.105 155.052 106.968 155.447 106.692C155.845 106.417 156.166 106.054 156.411 105.604C156.66 105.153 156.827 104.666 156.913 104.142C156.993 103.645 156.99 103.183 156.903 102.755C156.817 102.324 156.633 101.978 156.352 101.716C156.07 101.451 155.674 101.318 155.163 101.318C154.627 101.318 154.158 101.457 153.756 101.736C153.359 102.014 153.037 102.38 152.792 102.835C152.547 103.289 152.383 103.777 152.3 104.301C152.22 104.798 152.222 105.261 152.305 105.688C152.391 106.112 152.575 106.455 152.857 106.717C153.142 106.976 153.539 107.105 154.05 107.105ZM162.105 108.159C161.465 108.159 160.928 107.998 160.494 107.677C160.06 107.352 159.753 106.895 159.574 106.305C159.399 105.711 159.377 105.01 159.51 104.202C159.646 103.4 159.899 102.704 160.271 102.114C160.645 101.524 161.104 101.068 161.648 100.746C162.191 100.425 162.784 100.264 163.427 100.264C163.925 100.264 164.304 100.347 164.566 100.513C164.831 100.675 165.023 100.861 165.143 101.07C165.262 101.275 165.353 101.444 165.416 101.577H165.516L166.142 97.8182H167.315L165.625 108H164.491L164.69 106.827H164.551C164.442 106.966 164.289 107.142 164.094 107.354C163.898 107.562 163.64 107.75 163.318 107.915C163 108.078 162.596 108.159 162.105 108.159ZM162.393 107.105C162.864 107.105 163.285 106.982 163.656 106.737C164.031 106.489 164.342 106.146 164.591 105.708C164.839 105.267 165.012 104.759 165.108 104.182C165.204 103.612 165.201 103.113 165.098 102.685C164.995 102.254 164.798 101.92 164.506 101.681C164.215 101.439 163.829 101.318 163.348 101.318C162.854 101.318 162.425 101.446 162.06 101.701C161.696 101.953 161.399 102.296 161.17 102.73C160.942 103.161 160.783 103.645 160.693 104.182C160.604 104.725 160.602 105.219 160.688 105.663C160.774 106.104 160.957 106.455 161.235 106.717C161.517 106.976 161.903 107.105 162.393 107.105ZM173.256 104.878L174.012 100.364H175.185L173.913 108H172.739L172.958 106.707H172.878C172.64 107.095 172.307 107.425 171.879 107.697C171.452 107.965 170.949 108.099 170.373 108.099C169.896 108.099 169.488 107.995 169.15 107.786C168.815 107.574 168.576 107.256 168.434 106.832C168.295 106.404 168.278 105.866 168.384 105.216L169.199 100.364H170.373L169.577 105.136C169.488 105.693 169.572 106.137 169.831 106.469C170.089 106.8 170.462 106.966 170.949 106.966C171.241 106.966 171.549 106.891 171.874 106.742C172.202 106.593 172.494 106.364 172.749 106.056C173.008 105.748 173.177 105.355 173.256 104.878ZM179.144 108.159C178.425 108.159 177.835 107.99 177.374 107.652C176.917 107.314 176.598 106.848 176.419 106.255C176.241 105.662 176.214 104.984 176.34 104.222C176.466 103.446 176.721 102.762 177.106 102.168C177.49 101.572 177.969 101.106 178.542 100.771C179.116 100.433 179.747 100.264 180.437 100.264C180.973 100.264 181.441 100.364 181.839 100.562C182.236 100.761 182.543 101.04 182.758 101.398C182.974 101.756 183.075 102.173 183.062 102.651H181.888C181.855 102.303 181.706 101.994 181.441 101.726C181.179 101.454 180.791 101.318 180.277 101.318C179.82 101.318 179.399 101.437 179.015 101.676C178.63 101.911 178.307 102.245 178.045 102.675C177.783 103.103 177.606 103.605 177.513 104.182C177.414 104.772 177.422 105.286 177.538 105.723C177.654 106.161 177.865 106.5 178.169 106.742C178.474 106.984 178.859 107.105 179.323 107.105C179.628 107.105 179.913 107.052 180.178 106.946C180.443 106.84 180.678 106.688 180.884 106.489C181.089 106.29 181.252 106.051 181.371 105.773H182.544C182.399 106.223 182.165 106.629 181.843 106.991C181.522 107.349 181.133 107.634 180.675 107.846C180.218 108.055 179.707 108.159 179.144 108.159ZM188.476 100.364L188.316 101.358H184.359L184.518 100.364H188.476ZM185.97 98.5341H187.143L185.93 105.812C185.877 106.144 185.885 106.393 185.955 106.558C186.028 106.721 186.137 106.83 186.283 106.886C186.432 106.939 186.593 106.966 186.765 106.966C186.895 106.966 187.001 106.959 187.084 106.946C187.166 106.929 187.233 106.916 187.282 106.906L187.362 107.96C187.272 107.99 187.151 108.02 186.999 108.05C186.85 108.083 186.666 108.099 186.447 108.099C186.116 108.099 185.804 108.028 185.513 107.886C185.221 107.743 184.997 107.526 184.841 107.234C184.686 106.943 184.644 106.575 184.717 106.131L185.97 98.5341ZM192.038 108.159C191.335 108.159 190.747 107.992 190.273 107.657C189.799 107.322 189.464 106.853 189.269 106.25C189.076 105.647 189.045 104.944 189.174 104.142C189.3 103.36 189.55 102.679 189.925 102.099C190.303 101.515 190.772 101.065 191.332 100.746C191.895 100.425 192.515 100.264 193.191 100.264C193.894 100.264 194.48 100.433 194.951 100.771C195.425 101.106 195.76 101.577 195.955 102.183C196.151 102.786 196.184 103.492 196.055 104.301C195.929 105.077 195.675 105.754 195.294 106.335C194.916 106.911 194.447 107.36 193.887 107.682C193.33 108 192.714 108.159 192.038 108.159ZM192.058 107.105C192.595 107.105 193.06 106.968 193.455 106.692C193.852 106.417 194.174 106.054 194.419 105.604C194.668 105.153 194.835 104.666 194.921 104.142C195.001 103.645 194.997 103.183 194.911 102.755C194.825 102.324 194.641 101.978 194.359 101.716C194.078 101.451 193.682 101.318 193.171 101.318C192.634 101.318 192.165 101.457 191.764 101.736C191.367 102.014 191.045 102.38 190.8 102.835C190.555 103.289 190.39 103.777 190.308 104.301C190.228 104.798 190.23 105.261 190.313 105.688C190.399 106.112 190.583 106.455 190.864 106.717C191.149 106.976 191.547 107.105 192.058 107.105ZM203.643 102.074L202.529 102.372C202.489 102.193 202.42 102.021 202.32 101.855C202.224 101.686 202.075 101.549 201.873 101.442C201.674 101.333 201.402 101.278 201.057 101.278C200.59 101.278 200.184 101.386 199.839 101.602C199.495 101.814 199.297 102.084 199.248 102.412C199.198 102.7 199.264 102.931 199.447 103.103C199.629 103.275 199.934 103.416 200.361 103.526L201.455 103.804C202.111 103.973 202.579 104.227 202.857 104.565C203.139 104.899 203.235 105.335 203.146 105.872C203.073 106.31 202.882 106.701 202.574 107.045C202.266 107.39 201.871 107.662 201.391 107.861C200.91 108.06 200.375 108.159 199.785 108.159C198.999 108.159 198.379 107.99 197.925 107.652C197.471 107.311 197.229 106.817 197.199 106.17L198.373 105.892C198.403 106.3 198.548 106.608 198.81 106.817C199.075 107.022 199.447 107.125 199.924 107.125C200.471 107.125 200.927 107.009 201.291 106.777C201.656 106.542 201.863 106.26 201.913 105.932C201.962 105.663 201.909 105.44 201.753 105.261C201.601 105.082 201.336 104.947 200.958 104.858L199.745 104.56C199.069 104.391 198.595 104.132 198.323 103.784C198.055 103.436 197.965 102.999 198.055 102.472C198.128 102.041 198.313 101.66 198.611 101.328C198.913 100.997 199.291 100.737 199.745 100.548C200.202 100.359 200.699 100.264 201.236 100.264C201.992 100.264 202.557 100.43 202.932 100.761C203.306 101.089 203.543 101.527 203.643 102.074ZM213.741 97.8182L212.051 108H210.818L212.29 99.1108H212.23L209.466 100.761L209.684 99.5085L212.508 97.8182H213.741ZM218.28 108.139C217.531 108.139 216.928 107.935 216.471 107.528C216.013 107.117 215.712 106.522 215.566 105.743C215.42 104.961 215.437 104.016 215.616 102.909C215.794 101.809 216.088 100.869 216.495 100.09C216.903 99.308 217.405 98.7114 218.002 98.3004C218.598 97.8861 219.268 97.679 220.01 97.679C220.753 97.679 221.354 97.8861 221.815 98.3004C222.279 98.7147 222.587 99.3113 222.74 100.09C222.896 100.869 222.881 101.809 222.695 102.909C222.509 104.016 222.213 104.959 221.805 105.738C221.397 106.517 220.895 107.112 220.299 107.523C219.702 107.934 219.029 108.139 218.28 108.139ZM218.459 107.045C219.205 107.045 219.843 106.687 220.373 105.972C220.907 105.252 221.283 104.232 221.502 102.909C221.648 102.027 221.678 101.277 221.591 100.657C221.505 100.037 221.313 99.5649 221.015 99.2401C220.716 98.9152 220.322 98.7528 219.831 98.7528C219.096 98.7528 218.463 99.1158 217.932 99.8416C217.402 100.564 217.027 101.587 216.809 102.909C216.663 103.791 216.631 104.54 216.714 105.156C216.797 105.773 216.986 106.242 217.281 106.563C217.576 106.885 217.969 107.045 218.459 107.045ZM227.03 108.139C226.281 108.139 225.678 107.935 225.221 107.528C224.763 107.117 224.462 106.522 224.316 105.743C224.17 104.961 224.187 104.016 224.366 102.909C224.544 101.809 224.838 100.869 225.245 100.09C225.653 99.308 226.155 98.7114 226.752 98.3004C227.348 97.8861 228.018 97.679 228.76 97.679C229.503 97.679 230.104 97.8861 230.565 98.3004C231.029 98.7147 231.337 99.3113 231.49 100.09C231.646 100.869 231.631 101.809 231.445 102.909C231.259 104.016 230.963 104.959 230.555 105.738C230.147 106.517 229.645 107.112 229.049 107.523C228.452 107.934 227.779 108.139 227.03 108.139ZM227.209 107.045C227.955 107.045 228.593 106.687 229.123 105.972C229.657 105.252 230.033 104.232 230.252 102.909C230.398 102.027 230.428 101.277 230.341 100.657C230.255 100.037 230.063 99.5649 229.765 99.2401C229.466 98.9152 229.072 98.7528 228.581 98.7528C227.846 98.7528 227.213 99.1158 226.682 99.8416C226.152 100.564 225.777 101.587 225.559 102.909C225.413 103.791 225.381 104.54 225.464 105.156C225.547 105.773 225.736 106.242 226.031 106.563C226.326 106.885 226.719 107.045 227.209 107.045ZM237.988 106.091L238.087 105.554C238.157 105.183 238.293 104.843 238.495 104.535C238.7 104.223 238.965 103.975 239.29 103.789C239.615 103.6 239.99 103.506 240.414 103.506C240.845 103.506 241.191 103.6 241.453 103.789C241.718 103.975 241.9 104.223 242 104.535C242.099 104.843 242.114 105.183 242.044 105.554L241.945 106.091C241.879 106.459 241.745 106.799 241.542 107.11C241.34 107.422 241.078 107.672 240.757 107.861C240.435 108.046 240.062 108.139 239.638 108.139C239.207 108.139 238.858 108.046 238.589 107.861C238.324 107.672 238.14 107.422 238.037 107.11C237.938 106.799 237.921 106.459 237.988 106.091ZM239.101 105.554L239.002 106.091C238.946 106.399 238.97 106.676 239.076 106.921C239.186 107.163 239.419 107.284 239.777 107.284C240.125 107.284 240.391 107.163 240.573 106.921C240.755 106.676 240.874 106.399 240.931 106.091L241.03 105.554C241.087 105.246 241.063 104.971 240.961 104.729C240.861 104.483 240.633 104.361 240.275 104.361C239.927 104.361 239.658 104.483 239.469 104.729C239.28 104.971 239.158 105.246 239.101 105.554ZM233.891 100.264L233.971 99.7273C234.027 99.3561 234.158 99.0163 234.363 98.7081C234.569 98.3965 234.836 98.148 235.164 97.9624C235.495 97.7734 235.873 97.679 236.297 97.679C236.728 97.679 237.073 97.7734 237.331 97.9624C237.59 98.148 237.767 98.3965 237.863 98.7081C237.963 99.0163 237.984 99.3561 237.928 99.7273L237.848 100.264C237.795 100.635 237.666 100.977 237.461 101.288C237.258 101.6 236.993 101.848 236.665 102.034C236.34 102.22 235.966 102.312 235.542 102.312C235.111 102.312 234.764 102.22 234.503 102.034C234.241 101.848 234.06 101.6 233.961 101.288C233.861 100.977 233.838 100.635 233.891 100.264ZM234.985 99.7273L234.905 100.264C234.859 100.576 234.887 100.853 234.99 101.094C235.093 101.336 235.323 101.457 235.681 101.457C236.029 101.457 236.296 101.336 236.481 101.094C236.67 100.853 236.788 100.576 236.834 100.264L236.914 99.7273C236.96 99.419 236.935 99.1439 236.839 98.902C236.743 98.6567 236.516 98.5341 236.158 98.5341C235.81 98.5341 235.538 98.6567 235.343 98.902C235.151 99.1439 235.031 99.419 234.985 99.7273ZM232.946 108L241.637 97.8182H242.83L234.14 108H232.946ZM160.405 114.818H161.638L160.425 122.136C160.319 122.786 160.117 123.335 159.819 123.782C159.524 124.226 159.146 124.564 158.685 124.796C158.228 125.025 157.701 125.139 157.104 125.139C156.534 125.139 156.044 125.036 155.633 124.831C155.222 124.625 154.92 124.334 154.728 123.956C154.536 123.578 154.479 123.131 154.559 122.614H155.732C155.692 122.912 155.724 123.169 155.827 123.384C155.929 123.596 156.092 123.76 156.314 123.876C156.539 123.989 156.809 124.045 157.124 124.045C157.489 124.045 157.814 123.969 158.099 123.817C158.387 123.661 158.626 123.436 158.814 123.141C159.007 122.842 159.139 122.481 159.212 122.057L160.405 114.818ZM164.487 125.179C164.003 125.179 163.579 125.088 163.214 124.906C162.85 124.72 162.58 124.453 162.404 124.105C162.228 123.754 162.18 123.33 162.26 122.832C162.336 122.395 162.483 122.04 162.702 121.768C162.921 121.493 163.186 121.278 163.498 121.122C163.813 120.963 164.151 120.845 164.512 120.769C164.876 120.69 165.239 120.628 165.601 120.585C166.071 120.526 166.454 120.479 166.749 120.446C167.044 120.413 167.266 120.358 167.415 120.282C167.564 120.206 167.656 120.075 167.689 119.889V119.849C167.768 119.362 167.704 118.983 167.495 118.711C167.286 118.436 166.913 118.298 166.376 118.298C165.819 118.298 165.354 118.421 164.979 118.666C164.605 118.911 164.328 119.173 164.149 119.452L163.115 119.054C163.387 118.59 163.711 118.229 164.089 117.97C164.467 117.708 164.863 117.526 165.278 117.423C165.692 117.317 166.091 117.264 166.476 117.264C166.721 117.264 166.998 117.294 167.306 117.354C167.614 117.41 167.903 117.528 168.171 117.707C168.443 117.886 168.647 118.156 168.782 118.517C168.922 118.878 168.942 119.362 168.842 119.969L168.007 125H166.834L167.013 123.966H166.953C166.847 124.132 166.684 124.309 166.466 124.498C166.25 124.687 165.977 124.848 165.645 124.98C165.317 125.113 164.931 125.179 164.487 125.179ZM164.825 124.125C165.289 124.125 165.695 124.034 166.043 123.852C166.394 123.669 166.676 123.434 166.888 123.146C167.104 122.857 167.238 122.554 167.291 122.236L167.47 121.162C167.41 121.222 167.293 121.276 167.117 121.326C166.941 121.372 166.742 121.414 166.52 121.45C166.302 121.483 166.088 121.513 165.879 121.54C165.674 121.563 165.508 121.583 165.382 121.599C165.07 121.639 164.774 121.704 164.492 121.793C164.214 121.879 163.978 122.01 163.786 122.186C163.597 122.358 163.479 122.594 163.433 122.892C163.363 123.3 163.461 123.608 163.726 123.817C163.992 124.022 164.358 124.125 164.825 124.125ZM169.671 127.864L171.431 117.364H172.565L172.366 118.577H172.505C172.611 118.444 172.757 118.275 172.942 118.07C173.131 117.861 173.385 117.675 173.703 117.513C174.025 117.347 174.434 117.264 174.931 117.264C175.574 117.264 176.113 117.425 176.547 117.746C176.981 118.068 177.288 118.524 177.467 119.114C177.646 119.704 177.669 120.4 177.536 121.202C177.404 122.01 177.15 122.711 176.776 123.305C176.401 123.895 175.944 124.352 175.403 124.677C174.863 124.998 174.275 125.159 173.638 125.159C173.148 125.159 172.768 125.078 172.5 124.915C172.232 124.75 172.036 124.562 171.913 124.354C171.791 124.142 171.696 123.966 171.63 123.827H171.531L170.854 127.864H169.671ZM171.948 121.182C171.855 121.759 171.855 122.267 171.948 122.708C172.044 123.146 172.235 123.489 172.52 123.737C172.808 123.982 173.188 124.105 173.658 124.105C174.149 124.105 174.578 123.976 174.946 123.717C175.317 123.455 175.622 123.104 175.861 122.663C176.103 122.219 176.27 121.725 176.363 121.182C176.449 120.645 176.446 120.161 176.353 119.73C176.26 119.296 176.071 118.953 175.786 118.701C175.501 118.446 175.11 118.318 174.613 118.318C174.136 118.318 173.713 118.439 173.345 118.681C172.981 118.92 172.679 119.254 172.44 119.685C172.205 120.113 172.041 120.612 171.948 121.182ZM181.845 125.159C181.143 125.159 180.554 124.992 180.08 124.657C179.606 124.322 179.272 123.853 179.076 123.25C178.884 122.647 178.852 121.944 178.982 121.142C179.108 120.36 179.358 119.679 179.732 119.099C180.11 118.515 180.579 118.065 181.139 117.746C181.703 117.425 182.323 117.264 182.999 117.264C183.701 117.264 184.288 117.433 184.759 117.771C185.233 118.106 185.567 118.577 185.763 119.183C185.959 119.786 185.992 120.492 185.862 121.301C185.736 122.077 185.483 122.754 185.102 123.335C184.724 123.911 184.255 124.36 183.695 124.682C183.138 125 182.521 125.159 181.845 125.159ZM181.865 124.105C182.402 124.105 182.868 123.968 183.262 123.692C183.66 123.417 183.981 123.054 184.227 122.604C184.475 122.153 184.643 121.666 184.729 121.142C184.808 120.645 184.805 120.183 184.719 119.755C184.633 119.324 184.449 118.978 184.167 118.716C183.885 118.451 183.489 118.318 182.979 118.318C182.442 118.318 181.973 118.457 181.572 118.736C181.174 119.014 180.853 119.38 180.607 119.835C180.362 120.289 180.198 120.777 180.115 121.301C180.036 121.798 180.037 122.261 180.12 122.688C180.206 123.112 180.39 123.455 180.672 123.717C180.957 123.976 181.355 124.105 181.865 124.105ZM188.976 120.406L188.22 125H187.047L188.32 117.364H189.453L189.254 118.557H189.354C189.592 118.169 189.915 117.857 190.323 117.622C190.731 117.384 191.223 117.264 191.8 117.264C192.31 117.264 192.741 117.37 193.092 117.582C193.447 117.791 193.697 118.109 193.843 118.537C193.992 118.961 194.014 119.498 193.908 120.148L193.092 125H191.919L192.714 120.227C192.814 119.631 192.736 119.163 192.481 118.825C192.229 118.487 191.83 118.318 191.283 118.318C190.905 118.318 190.555 118.399 190.234 118.562C189.915 118.724 189.645 118.961 189.423 119.273C189.205 119.584 189.055 119.962 188.976 120.406ZM198.418 125.159C197.686 125.159 197.081 124.997 196.604 124.672C196.126 124.344 195.793 123.886 195.604 123.3C195.415 122.71 195.385 122.024 195.515 121.241C195.644 120.459 195.901 119.77 196.285 119.173C196.67 118.573 197.149 118.106 197.722 117.771C198.296 117.433 198.925 117.264 199.611 117.264C200.009 117.264 200.392 117.33 200.76 117.463C201.128 117.596 201.446 117.811 201.714 118.109C201.983 118.404 202.17 118.795 202.276 119.283C202.382 119.77 202.376 120.37 202.256 121.082L202.177 121.58H196.29L196.449 120.565H201.143C201.219 120.134 201.199 119.75 201.083 119.412C200.97 119.074 200.773 118.807 200.491 118.612C200.213 118.416 199.86 118.318 199.432 118.318C198.992 118.318 198.581 118.437 198.199 118.676C197.818 118.911 197.5 119.21 197.245 119.571C196.99 119.929 196.831 120.294 196.768 120.665L196.628 121.54C196.529 122.173 196.544 122.677 196.673 123.051C196.806 123.426 197.036 123.696 197.364 123.862C197.692 124.024 198.103 124.105 198.597 124.105C198.912 124.105 199.202 124.062 199.467 123.976C199.732 123.886 199.969 123.754 200.178 123.578C200.387 123.399 200.563 123.177 200.705 122.912L201.779 123.23C201.597 123.615 201.34 123.953 201.008 124.244C200.68 124.533 200.296 124.758 199.855 124.92C199.417 125.08 198.939 125.159 198.418 125.159ZM209.816 119.074L208.702 119.372C208.662 119.193 208.593 119.021 208.493 118.855C208.397 118.686 208.248 118.549 208.046 118.442C207.847 118.333 207.575 118.278 207.23 118.278C206.763 118.278 206.357 118.386 206.012 118.602C205.668 118.814 205.47 119.084 205.421 119.412C205.371 119.7 205.437 119.931 205.619 120.103C205.802 120.275 206.107 120.416 206.534 120.526L207.628 120.804C208.284 120.973 208.752 121.227 209.03 121.565C209.312 121.899 209.408 122.335 209.318 122.872C209.245 123.31 209.055 123.701 208.747 124.045C208.438 124.39 208.044 124.662 207.563 124.861C207.083 125.06 206.548 125.159 205.958 125.159C205.172 125.159 204.552 124.99 204.098 124.652C203.644 124.311 203.402 123.817 203.372 123.17L204.546 122.892C204.575 123.3 204.721 123.608 204.983 123.817C205.248 124.022 205.619 124.125 206.097 124.125C206.644 124.125 207.099 124.009 207.464 123.777C207.829 123.542 208.036 123.26 208.085 122.932C208.135 122.663 208.082 122.44 207.926 122.261C207.774 122.082 207.509 121.947 207.131 121.858L205.918 121.56C205.242 121.391 204.768 121.132 204.496 120.784C204.227 120.436 204.138 119.999 204.227 119.472C204.3 119.041 204.486 118.66 204.784 118.328C205.086 117.997 205.464 117.737 205.918 117.548C206.375 117.359 206.872 117.264 207.409 117.264C208.165 117.264 208.73 117.43 209.105 117.761C209.479 118.089 209.716 118.527 209.816 119.074ZM213.908 125.159C213.176 125.159 212.571 124.997 212.094 124.672C211.616 124.344 211.283 123.886 211.094 123.3C210.906 122.71 210.876 122.024 211.005 121.241C211.134 120.459 211.391 119.77 211.776 119.173C212.16 118.573 212.639 118.106 213.212 117.771C213.786 117.433 214.415 117.264 215.102 117.264C215.499 117.264 215.882 117.33 216.25 117.463C216.618 117.596 216.936 117.811 217.205 118.109C217.473 118.404 217.66 118.795 217.766 119.283C217.872 119.77 217.866 120.37 217.746 121.082L217.667 121.58H211.781L211.94 120.565H216.633C216.709 120.134 216.689 119.75 216.573 119.412C216.46 119.074 216.263 118.807 215.982 118.612C215.703 118.416 215.35 118.318 214.923 118.318C214.482 118.318 214.071 118.437 213.69 118.676C213.308 118.911 212.99 119.21 212.735 119.571C212.48 119.929 212.321 120.294 212.258 120.665L212.119 121.54C212.019 122.173 212.034 122.677 212.163 123.051C212.296 123.426 212.526 123.696 212.854 123.862C213.183 124.024 213.594 124.105 214.087 124.105C214.402 124.105 214.692 124.062 214.957 123.976C215.223 123.886 215.46 123.754 215.668 123.578C215.877 123.399 216.053 123.177 216.195 122.912L217.269 123.23C217.087 123.615 216.83 123.953 216.499 124.244C216.17 124.533 215.786 124.758 215.345 124.92C214.908 125.08 214.429 125.159 213.908 125.159ZM225.306 119.074L224.192 119.372C224.152 119.193 224.083 119.021 223.983 118.855C223.887 118.686 223.738 118.549 223.536 118.442C223.337 118.333 223.065 118.278 222.721 118.278C222.253 118.278 221.847 118.386 221.502 118.602C221.158 118.814 220.961 119.084 220.911 119.412C220.861 119.7 220.927 119.931 221.11 120.103C221.292 120.275 221.597 120.416 222.025 120.526L223.118 120.804C223.775 120.973 224.242 121.227 224.52 121.565C224.802 121.899 224.898 122.335 224.809 122.872C224.736 123.31 224.545 123.701 224.237 124.045C223.929 124.39 223.534 124.662 223.054 124.861C222.573 125.06 222.038 125.159 221.448 125.159C220.662 125.159 220.042 124.99 219.588 124.652C219.134 124.311 218.892 123.817 218.863 123.17L220.036 122.892C220.066 123.3 220.212 123.608 220.473 123.817C220.739 124.022 221.11 124.125 221.587 124.125C222.134 124.125 222.59 124.009 222.954 123.777C223.319 123.542 223.526 123.26 223.576 122.932C223.625 122.663 223.572 122.44 223.417 122.261C223.264 122.082 222.999 121.947 222.621 121.858L221.408 121.56C220.732 121.391 220.258 121.132 219.986 120.784C219.718 120.436 219.628 119.999 219.718 119.472C219.791 119.041 219.976 118.66 220.275 118.328C220.576 117.997 220.954 117.737 221.408 117.548C221.865 117.359 222.363 117.264 222.9 117.264C223.655 117.264 224.22 117.43 224.595 117.761C224.969 118.089 225.206 118.527 225.306 119.074Z" fill="black"/>
<path d="M270.333 105L272.023 94.8182H273.256L271.745 103.906H276.478L276.299 105H270.333ZM280.912 94.8182L279.222 105H278.049L279.739 94.8182H280.912ZM284.553 105.159C283.82 105.159 283.216 104.997 282.738 104.672C282.261 104.344 281.928 103.886 281.739 103.3C281.55 102.71 281.52 102.024 281.65 101.241C281.779 100.459 282.036 99.7699 282.42 99.1733C282.805 98.5734 283.283 98.1061 283.857 97.7713C284.43 97.4332 285.06 97.2642 285.746 97.2642C286.144 97.2642 286.527 97.3305 286.895 97.4631C287.262 97.5956 287.581 97.8111 287.849 98.1094C288.118 98.4044 288.305 98.7955 288.411 99.2827C288.517 99.7699 288.51 100.37 288.391 101.082L288.311 101.58H282.425L282.584 100.565H287.277C287.354 100.134 287.334 99.75 287.218 99.4119C287.105 99.0739 286.908 98.8071 286.626 98.6115C286.348 98.416 285.995 98.3182 285.567 98.3182C285.126 98.3182 284.715 98.4375 284.334 98.6761C283.953 98.9115 283.635 99.2098 283.38 99.571C283.124 99.929 282.965 100.294 282.902 100.665L282.763 101.54C282.664 102.173 282.679 102.677 282.808 103.051C282.94 103.426 283.171 103.696 283.499 103.862C283.827 104.024 284.238 104.105 284.732 104.105C285.047 104.105 285.337 104.062 285.602 103.976C285.867 103.886 286.104 103.754 286.313 103.578C286.522 103.399 286.697 103.177 286.84 102.912L287.914 103.23C287.731 103.615 287.475 103.953 287.143 104.244C286.815 104.533 286.431 104.758 285.99 104.92C285.552 105.08 285.073 105.159 284.553 105.159ZM296.831 97.3636L292.735 105H291.542L289.991 97.3636H291.214L292.307 103.449H292.387L295.509 97.3636H296.831ZM299.102 105.179C298.618 105.179 298.194 105.088 297.83 104.906C297.465 104.72 297.195 104.453 297.019 104.105C296.844 103.754 296.795 103.33 296.875 102.832C296.951 102.395 297.099 102.04 297.317 101.768C297.536 101.493 297.801 101.278 298.113 101.122C298.428 100.963 298.766 100.845 299.127 100.769C299.492 100.69 299.855 100.628 300.216 100.585C300.687 100.526 301.069 100.479 301.364 100.446C301.659 100.413 301.881 100.358 302.031 100.282C302.18 100.206 302.271 100.075 302.304 99.8892V99.8494C302.384 99.3622 302.319 98.9827 302.11 98.7109C301.901 98.4358 301.528 98.2983 300.991 98.2983C300.435 98.2983 299.969 98.4209 299.594 98.6662C299.22 98.9115 298.943 99.1733 298.764 99.4517L297.73 99.054C298.002 98.59 298.327 98.2287 298.705 97.9702C299.082 97.7083 299.478 97.526 299.893 97.4233C300.307 97.3172 300.706 97.2642 301.091 97.2642C301.336 97.2642 301.613 97.294 301.921 97.3537C302.229 97.41 302.518 97.5277 302.786 97.7067C303.058 97.8857 303.262 98.1558 303.398 98.517C303.537 98.8783 303.557 99.3622 303.457 99.9688L302.622 105H301.449L301.628 103.966H301.568C301.462 104.132 301.3 104.309 301.081 104.498C300.866 104.687 300.592 104.848 300.261 104.98C299.933 105.113 299.546 105.179 299.102 105.179ZM299.44 104.125C299.904 104.125 300.31 104.034 300.658 103.852C301.01 103.669 301.291 103.434 301.504 103.146C301.719 102.857 301.853 102.554 301.906 102.236L302.085 101.162C302.026 101.222 301.908 101.276 301.732 101.326C301.557 101.372 301.358 101.414 301.136 101.45C300.917 101.483 300.703 101.513 300.494 101.54C300.289 101.563 300.123 101.583 299.997 101.599C299.686 101.639 299.389 101.704 299.107 101.793C298.829 101.879 298.594 102.01 298.401 102.186C298.212 102.358 298.095 102.594 298.048 102.892C297.979 103.3 298.076 103.608 298.342 103.817C298.607 104.022 298.973 104.125 299.44 104.125ZM310.928 105.179C310.445 105.179 310.02 105.088 309.656 104.906C309.291 104.72 309.021 104.453 308.845 104.105C308.67 103.754 308.622 103.33 308.701 102.832C308.777 102.395 308.925 102.04 309.144 101.768C309.362 101.493 309.628 101.278 309.939 101.122C310.254 100.963 310.592 100.845 310.953 100.769C311.318 100.69 311.681 100.628 312.042 100.585C312.513 100.526 312.896 100.479 313.191 100.446C313.485 100.413 313.708 100.358 313.857 100.282C314.006 100.206 314.097 100.075 314.13 99.8892V99.8494C314.21 99.3622 314.145 98.9827 313.936 98.7109C313.727 98.4358 313.355 98.2983 312.818 98.2983C312.261 98.2983 311.795 98.4209 311.421 98.6662C311.046 98.9115 310.769 99.1733 310.59 99.4517L309.556 99.054C309.828 98.59 310.153 98.2287 310.531 97.9702C310.909 97.7083 311.305 97.526 311.719 97.4233C312.133 97.3172 312.533 97.2642 312.917 97.2642C313.162 97.2642 313.439 97.294 313.747 97.3537C314.056 97.41 314.344 97.5277 314.612 97.7067C314.884 97.8857 315.088 98.1558 315.224 98.517C315.363 98.8783 315.383 99.3622 315.284 99.9688L314.448 105H313.275L313.454 103.966H313.394C313.288 104.132 313.126 104.309 312.907 104.498C312.692 104.687 312.418 104.848 312.087 104.98C311.759 105.113 311.373 105.179 310.928 105.179ZM311.267 104.125C311.731 104.125 312.137 104.034 312.485 103.852C312.836 103.669 313.118 103.434 313.33 103.146C313.545 102.857 313.679 102.554 313.732 102.236L313.911 101.162C313.852 101.222 313.734 101.276 313.558 101.326C313.383 101.372 313.184 101.414 312.962 101.45C312.743 101.483 312.529 101.513 312.32 101.54C312.115 101.563 311.949 101.583 311.823 101.599C311.512 101.639 311.215 101.704 310.933 101.793C310.655 101.879 310.42 102.01 310.227 102.186C310.039 102.358 309.921 102.594 309.874 102.892C309.805 103.3 309.903 103.608 310.168 103.817C310.433 104.022 310.799 104.125 311.267 104.125ZM323.61 105.159C322.891 105.159 322.301 104.99 321.84 104.652C321.382 104.314 321.064 103.848 320.885 103.255C320.706 102.662 320.68 101.984 320.806 101.222C320.932 100.446 321.187 99.7616 321.571 99.1683C321.956 98.5717 322.435 98.1061 323.008 97.7713C323.582 97.4332 324.213 97.2642 324.902 97.2642C325.439 97.2642 325.907 97.3636 326.304 97.5625C326.702 97.7614 327.009 98.0398 327.224 98.3977C327.44 98.7557 327.541 99.1733 327.527 99.6506H326.354C326.321 99.3026 326.172 98.9943 325.907 98.7259C325.645 98.4541 325.257 98.3182 324.743 98.3182C324.286 98.3182 323.865 98.4375 323.48 98.6761C323.096 98.9115 322.773 99.2446 322.511 99.6754C322.249 100.103 322.072 100.605 321.979 101.182C321.88 101.772 321.888 102.286 322.004 102.723C322.12 103.161 322.33 103.5 322.635 103.742C322.94 103.984 323.325 104.105 323.789 104.105C324.094 104.105 324.379 104.052 324.644 103.946C324.909 103.84 325.144 103.688 325.35 103.489C325.555 103.29 325.718 103.051 325.837 102.773H327.01C326.864 103.223 326.631 103.629 326.309 103.991C325.988 104.349 325.598 104.634 325.141 104.846C324.684 105.055 324.173 105.159 323.61 105.159ZM330.575 105.179C330.091 105.179 329.667 105.088 329.302 104.906C328.938 104.72 328.667 104.453 328.492 104.105C328.316 103.754 328.268 103.33 328.348 102.832C328.424 102.395 328.571 102.04 328.79 101.768C329.009 101.493 329.274 101.278 329.586 101.122C329.9 100.963 330.239 100.845 330.6 100.769C330.964 100.69 331.327 100.628 331.689 100.585C332.159 100.526 332.542 100.479 332.837 100.446C333.132 100.413 333.354 100.358 333.503 100.282C333.652 100.206 333.743 100.075 333.777 99.8892V99.8494C333.856 99.3622 333.792 98.9827 333.583 98.7109C333.374 98.4358 333.001 98.2983 332.464 98.2983C331.907 98.2983 331.442 98.4209 331.067 98.6662C330.693 98.9115 330.416 99.1733 330.237 99.4517L329.203 99.054C329.475 98.59 329.799 98.2287 330.177 97.9702C330.555 97.7083 330.951 97.526 331.365 97.4233C331.78 97.3172 332.179 97.2642 332.564 97.2642C332.809 97.2642 333.086 97.294 333.394 97.3537C333.702 97.41 333.99 97.5277 334.259 97.7067C334.531 97.8857 334.734 98.1558 334.87 98.517C335.01 98.8783 335.029 99.3622 334.93 99.9688L334.095 105H332.922L333.1 103.966H333.041C332.935 104.132 332.772 104.309 332.554 104.498C332.338 104.687 332.065 104.848 331.733 104.98C331.405 105.113 331.019 105.179 330.575 105.179ZM330.913 104.125C331.377 104.125 331.783 104.034 332.131 103.852C332.482 103.669 332.764 103.434 332.976 103.146C333.192 102.857 333.326 102.554 333.379 102.236L333.558 101.162C333.498 101.222 333.381 101.276 333.205 101.326C333.029 101.372 332.83 101.414 332.608 101.45C332.39 101.483 332.176 101.513 331.967 101.54C331.761 101.563 331.596 101.583 331.47 101.599C331.158 101.639 330.862 101.704 330.58 101.793C330.301 101.879 330.066 102.01 329.874 102.186C329.685 102.358 329.567 102.594 329.521 102.892C329.451 103.3 329.549 103.608 329.814 103.817C330.079 104.022 330.446 104.125 330.913 104.125ZM342.64 99.0739L341.526 99.3722C341.486 99.1932 341.417 99.0208 341.317 98.8551C341.221 98.6861 341.072 98.5485 340.87 98.4425C340.671 98.3331 340.399 98.2784 340.055 98.2784C339.587 98.2784 339.181 98.3861 338.836 98.6016C338.492 98.8137 338.295 99.0838 338.245 99.4119C338.195 99.7003 338.261 99.9306 338.444 100.103C338.626 100.275 338.931 100.416 339.358 100.526L340.452 100.804C341.108 100.973 341.576 101.227 341.854 101.565C342.136 101.899 342.232 102.335 342.143 102.872C342.07 103.31 341.879 103.701 341.571 104.045C341.263 104.39 340.868 104.662 340.388 104.861C339.907 105.06 339.372 105.159 338.782 105.159C337.996 105.159 337.376 104.99 336.922 104.652C336.468 104.311 336.226 103.817 336.197 103.17L337.37 102.892C337.4 103.3 337.546 103.608 337.807 103.817C338.073 104.022 338.444 104.125 338.921 104.125C339.468 104.125 339.924 104.009 340.288 103.777C340.653 103.542 340.86 103.26 340.91 102.932C340.959 102.663 340.906 102.44 340.751 102.261C340.598 102.082 340.333 101.947 339.955 101.858L338.742 101.56C338.066 101.391 337.592 101.132 337.32 100.784C337.052 100.436 336.962 99.9986 337.052 99.4716C337.125 99.0407 337.31 98.6596 337.608 98.3281C337.91 97.9967 338.288 97.7365 338.742 97.5476C339.199 97.3587 339.697 97.2642 340.233 97.2642C340.989 97.2642 341.554 97.4299 341.929 97.7614C342.303 98.0895 342.54 98.527 342.64 99.0739ZM345.778 105.179C345.294 105.179 344.87 105.088 344.505 104.906C344.141 104.72 343.871 104.453 343.695 104.105C343.519 103.754 343.471 103.33 343.551 102.832C343.627 102.395 343.775 102.04 343.993 101.768C344.212 101.493 344.477 101.278 344.789 101.122C345.104 100.963 345.442 100.845 345.803 100.769C346.167 100.69 346.53 100.628 346.892 100.585C347.362 100.526 347.745 100.479 348.04 100.446C348.335 100.413 348.557 100.358 348.706 100.282C348.855 100.206 348.947 100.075 348.98 99.8892V99.8494C349.059 99.3622 348.995 98.9827 348.786 98.7109C348.577 98.4358 348.204 98.2983 347.667 98.2983C347.11 98.2983 346.645 98.4209 346.27 98.6662C345.896 98.9115 345.619 99.1733 345.44 99.4517L344.406 99.054C344.678 98.59 345.002 98.2287 345.38 97.9702C345.758 97.7083 346.154 97.526 346.569 97.4233C346.983 97.3172 347.382 97.2642 347.767 97.2642C348.012 97.2642 348.289 97.294 348.597 97.3537C348.905 97.41 349.194 97.5277 349.462 97.7067C349.734 97.8857 349.938 98.1558 350.074 98.517C350.213 98.8783 350.233 99.3622 350.133 99.9688L349.298 105H348.125L348.304 103.966H348.244C348.138 104.132 347.975 104.309 347.757 104.498C347.541 104.687 347.268 104.848 346.936 104.98C346.608 105.113 346.222 105.179 345.778 105.179ZM346.116 104.125C346.58 104.125 346.986 104.034 347.334 103.852C347.685 103.669 347.967 103.434 348.179 103.146C348.395 102.857 348.529 102.554 348.582 102.236L348.761 101.162C348.701 101.222 348.584 101.276 348.408 101.326C348.232 101.372 348.033 101.414 347.811 101.45C347.593 101.483 347.379 101.513 347.17 101.54C346.965 101.563 346.799 101.583 346.673 101.599C346.361 101.639 346.065 101.704 345.783 101.793C345.505 101.879 345.269 102.01 345.077 102.186C344.888 102.358 344.77 102.594 344.724 102.892C344.654 103.3 344.752 103.608 345.017 103.817C345.283 104.022 345.649 104.125 346.116 104.125ZM360.706 101.878L361.462 97.3636H362.635L361.363 105H360.189L360.408 103.707H360.329C360.09 104.095 359.757 104.425 359.329 104.697C358.902 104.965 358.4 105.099 357.823 105.099C357.346 105.099 356.938 104.995 356.6 104.786C356.265 104.574 356.027 104.256 355.884 103.832C355.745 103.404 355.728 102.866 355.834 102.216L356.65 97.3636H357.823L357.028 102.136C356.938 102.693 357.023 103.137 357.281 103.469C357.54 103.8 357.912 103.966 358.4 103.966C358.691 103.966 359 103.891 359.324 103.742C359.653 103.593 359.944 103.364 360.199 103.056C360.458 102.748 360.627 102.355 360.706 101.878ZM365.441 100.406L364.685 105H363.512L364.784 97.3636H365.918L365.719 98.5568H365.819C366.057 98.169 366.38 97.8575 366.788 97.6222C367.196 97.3835 367.688 97.2642 368.265 97.2642C368.775 97.2642 369.206 97.3703 369.557 97.5824C369.912 97.7912 370.162 98.1094 370.308 98.5369C370.457 98.9612 370.479 99.4981 370.373 100.148L369.557 105H368.384L369.179 100.227C369.279 99.6307 369.201 99.1634 368.946 98.8253C368.694 98.4872 368.294 98.3182 367.748 98.3182C367.37 98.3182 367.02 98.3994 366.699 98.5618C366.38 98.7242 366.11 98.9612 365.888 99.2727C365.669 99.5843 365.52 99.9621 365.441 100.406ZM263.291 124.864L265.051 114.364H266.185L265.986 115.577H266.125C266.231 115.444 266.377 115.275 266.563 115.07C266.752 114.861 267.005 114.675 267.323 114.513C267.645 114.347 268.054 114.264 268.551 114.264C269.194 114.264 269.733 114.425 270.167 114.746C270.601 115.068 270.908 115.524 271.087 116.114C271.266 116.704 271.289 117.4 271.156 118.202C271.024 119.01 270.77 119.711 270.396 120.305C270.021 120.895 269.564 121.352 269.024 121.677C268.483 121.998 267.895 122.159 267.259 122.159C266.768 122.159 266.389 122.078 266.12 121.915C265.852 121.75 265.656 121.562 265.533 121.354C265.411 121.142 265.316 120.966 265.25 120.827H265.151L264.475 124.864H263.291ZM265.568 118.182C265.475 118.759 265.475 119.267 265.568 119.708C265.664 120.146 265.855 120.489 266.14 120.737C266.428 120.982 266.808 121.105 267.278 121.105C267.769 121.105 268.198 120.976 268.566 120.717C268.937 120.455 269.242 120.104 269.481 119.663C269.723 119.219 269.89 118.725 269.983 118.182C270.069 117.645 270.066 117.161 269.973 116.73C269.88 116.296 269.691 115.953 269.406 115.701C269.121 115.446 268.73 115.318 268.233 115.318C267.756 115.318 267.333 115.439 266.965 115.681C266.601 115.92 266.299 116.254 266.06 116.685C265.825 117.113 265.661 117.612 265.568 118.182ZM275.495 122.159C274.763 122.159 274.158 121.997 273.681 121.672C273.203 121.344 272.87 120.886 272.681 120.3C272.492 119.71 272.463 119.024 272.592 118.241C272.721 117.459 272.978 116.77 273.362 116.173C273.747 115.573 274.226 115.106 274.799 114.771C275.373 114.433 276.002 114.264 276.688 114.264C277.086 114.264 277.469 114.33 277.837 114.463C278.205 114.596 278.523 114.811 278.791 115.109C279.06 115.404 279.247 115.795 279.353 116.283C279.459 116.77 279.453 117.37 279.333 118.082L279.254 118.58H273.367L273.527 117.565H278.22C278.296 117.134 278.276 116.75 278.16 116.412C278.047 116.074 277.85 115.807 277.568 115.612C277.29 115.416 276.937 115.318 276.509 115.318C276.069 115.318 275.658 115.437 275.277 115.676C274.895 115.911 274.577 116.21 274.322 116.571C274.067 116.929 273.908 117.294 273.845 117.665L273.706 118.54C273.606 119.173 273.621 119.677 273.75 120.051C273.883 120.426 274.113 120.696 274.441 120.862C274.769 121.024 275.18 121.105 275.674 121.105C275.989 121.105 276.279 121.062 276.544 120.976C276.809 120.886 277.046 120.754 277.255 120.578C277.464 120.399 277.64 120.177 277.782 119.912L278.856 120.23C278.674 120.615 278.417 120.953 278.085 121.244C277.757 121.533 277.373 121.758 276.932 121.92C276.495 122.08 276.016 122.159 275.495 122.159ZM283.363 122.159C282.723 122.159 282.186 121.998 281.752 121.677C281.318 121.352 281.011 120.895 280.832 120.305C280.657 119.711 280.635 119.01 280.768 118.202C280.904 117.4 281.157 116.704 281.528 116.114C281.903 115.524 282.362 115.068 282.905 114.746C283.449 114.425 284.042 114.264 284.685 114.264C285.182 114.264 285.562 114.347 285.824 114.513C286.089 114.675 286.281 114.861 286.4 115.07C286.52 115.275 286.611 115.444 286.674 115.577H286.773L287.4 111.818H288.573L286.883 122H285.749L285.948 120.827H285.809C285.699 120.966 285.547 121.142 285.351 121.354C285.156 121.562 284.897 121.75 284.576 121.915C284.258 122.078 283.853 122.159 283.363 122.159ZM283.651 121.105C284.122 121.105 284.543 120.982 284.914 120.737C285.289 120.489 285.6 120.146 285.849 119.708C286.097 119.267 286.27 118.759 286.366 118.182C286.462 117.612 286.458 117.113 286.356 116.685C286.253 116.254 286.056 115.92 285.764 115.681C285.472 115.439 285.086 115.318 284.606 115.318C284.112 115.318 283.683 115.446 283.318 115.701C282.954 115.953 282.657 116.296 282.428 116.73C282.199 117.161 282.04 117.645 281.951 118.182C281.861 118.725 281.86 119.219 281.946 119.663C282.032 120.104 282.214 120.455 282.493 120.717C282.775 120.976 283.161 121.105 283.651 121.105ZM291.412 122.179C290.928 122.179 290.504 122.088 290.139 121.906C289.775 121.72 289.504 121.453 289.329 121.105C289.153 120.754 289.105 120.33 289.185 119.832C289.261 119.395 289.408 119.04 289.627 118.768C289.846 118.493 290.111 118.278 290.422 118.122C290.737 117.963 291.075 117.845 291.437 117.769C291.801 117.69 292.164 117.628 292.525 117.585C292.996 117.526 293.379 117.479 293.674 117.446C293.969 117.413 294.191 117.358 294.34 117.282C294.489 117.206 294.58 117.075 294.614 116.889V116.849C294.693 116.362 294.628 115.983 294.42 115.711C294.211 115.436 293.838 115.298 293.301 115.298C292.744 115.298 292.279 115.421 291.904 115.666C291.53 115.911 291.253 116.173 291.074 116.452L290.04 116.054C290.311 115.59 290.636 115.229 291.014 114.97C291.392 114.708 291.788 114.526 292.202 114.423C292.617 114.317 293.016 114.264 293.4 114.264C293.646 114.264 293.922 114.294 294.231 114.354C294.539 114.41 294.827 114.528 295.096 114.707C295.368 114.886 295.571 115.156 295.707 115.517C295.847 115.878 295.866 116.362 295.767 116.969L294.932 122H293.758L293.937 120.966H293.878C293.772 121.132 293.609 121.309 293.391 121.498C293.175 121.687 292.902 121.848 292.57 121.98C292.242 122.113 291.856 122.179 291.412 122.179ZM291.75 121.125C292.214 121.125 292.62 121.034 292.968 120.852C293.319 120.669 293.601 120.434 293.813 120.146C294.029 119.857 294.163 119.554 294.216 119.236L294.395 118.162C294.335 118.222 294.217 118.276 294.042 118.326C293.866 118.372 293.667 118.414 293.445 118.45C293.226 118.483 293.013 118.513 292.804 118.54C292.598 118.563 292.433 118.583 292.307 118.599C291.995 118.639 291.699 118.704 291.417 118.793C291.138 118.879 290.903 119.01 290.711 119.186C290.522 119.358 290.404 119.594 290.358 119.892C290.288 120.3 290.386 120.608 290.651 120.817C290.916 121.022 291.283 121.125 291.75 121.125ZM296.854 122L297.014 121.105L302.264 115.537L302.283 115.457H298.087L298.266 114.364H303.974L303.815 115.298L298.684 120.827L298.664 120.906H303.019L302.84 122H296.854ZM307.581 122.159C306.878 122.159 306.29 121.992 305.816 121.657C305.342 121.322 305.007 120.853 304.812 120.25C304.619 119.647 304.588 118.944 304.717 118.142C304.843 117.36 305.093 116.679 305.468 116.099C305.846 115.515 306.315 115.065 306.875 114.746C307.438 114.425 308.058 114.264 308.734 114.264C309.437 114.264 310.023 114.433 310.494 114.771C310.968 115.106 311.303 115.577 311.498 116.183C311.694 116.786 311.727 117.492 311.598 118.301C311.472 119.077 311.218 119.754 310.837 120.335C310.459 120.911 309.99 121.36 309.43 121.682C308.873 122 308.257 122.159 307.581 122.159ZM307.601 121.105C308.138 121.105 308.603 120.968 308.998 120.692C309.395 120.417 309.717 120.054 309.962 119.604C310.211 119.153 310.378 118.666 310.464 118.142C310.544 117.645 310.54 117.183 310.454 116.755C310.368 116.324 310.184 115.978 309.902 115.716C309.621 115.451 309.225 115.318 308.714 115.318C308.177 115.318 307.708 115.457 307.307 115.736C306.91 116.014 306.588 116.38 306.343 116.835C306.098 117.289 305.933 117.777 305.851 118.301C305.771 118.798 305.773 119.261 305.856 119.688C305.942 120.112 306.126 120.455 306.407 120.717C306.692 120.976 307.09 121.105 307.601 121.105ZM319.593 122.159C318.954 122.159 318.417 121.998 317.983 121.677C317.548 121.352 317.242 120.895 317.063 120.305C316.887 119.711 316.866 119.01 316.998 118.202C317.134 117.4 317.388 116.704 317.759 116.114C318.133 115.524 318.592 115.068 319.136 114.746C319.679 114.425 320.273 114.264 320.916 114.264C321.413 114.264 321.792 114.347 322.054 114.513C322.319 114.675 322.512 114.861 322.631 115.07C322.75 115.275 322.841 115.444 322.904 115.577H323.004L323.63 111.818H324.804L323.113 122H321.98L322.179 120.827H322.039C321.93 120.966 321.777 121.142 321.582 121.354C321.386 121.562 321.128 121.75 320.806 121.915C320.488 122.078 320.084 122.159 319.593 122.159ZM319.882 121.105C320.352 121.105 320.773 120.982 321.144 120.737C321.519 120.489 321.831 120.146 322.079 119.708C322.328 119.267 322.5 118.759 322.596 118.182C322.692 117.612 322.689 117.113 322.586 116.685C322.483 116.254 322.286 115.92 321.995 115.681C321.703 115.439 321.317 115.318 320.836 115.318C320.342 115.318 319.913 115.446 319.549 115.701C319.184 115.953 318.887 116.296 318.659 116.73C318.43 117.161 318.271 117.645 318.181 118.182C318.092 118.725 318.09 119.219 318.176 119.663C318.263 120.104 318.445 120.455 318.723 120.717C319.005 120.976 319.391 121.105 319.882 121.105ZM328.597 122.159C327.864 122.159 327.259 121.997 326.782 121.672C326.305 121.344 325.972 120.886 325.783 120.3C325.594 119.71 325.564 119.024 325.693 118.241C325.823 117.459 326.08 116.77 326.464 116.173C326.849 115.573 327.327 115.106 327.901 114.771C328.474 114.433 329.104 114.264 329.79 114.264C330.188 114.264 330.571 114.33 330.938 114.463C331.306 114.596 331.625 114.811 331.893 115.109C332.161 115.404 332.349 115.795 332.455 116.283C332.561 116.77 332.554 117.37 332.435 118.082L332.355 118.58H326.469L326.628 117.565H331.321C331.398 117.134 331.378 116.75 331.262 116.412C331.149 116.074 330.952 115.807 330.67 115.612C330.392 115.416 330.039 115.318 329.611 115.318C329.17 115.318 328.759 115.437 328.378 115.676C327.997 115.911 327.679 116.21 327.424 116.571C327.168 116.929 327.009 117.294 326.946 117.665L326.807 118.54C326.708 119.173 326.723 119.677 326.852 120.051C326.984 120.426 327.215 120.696 327.543 120.862C327.871 121.024 328.282 121.105 328.776 121.105C329.091 121.105 329.381 121.062 329.646 120.976C329.911 120.886 330.148 120.754 330.357 120.578C330.566 120.399 330.741 120.177 330.884 119.912L331.958 120.23C331.775 120.615 331.518 120.953 331.187 121.244C330.859 121.533 330.474 121.758 330.034 121.92C329.596 122.08 329.117 122.159 328.597 122.159ZM343.275 111.818H344.508L343.295 119.136C343.189 119.786 342.987 120.335 342.689 120.782C342.394 121.226 342.016 121.564 341.555 121.796C341.098 122.025 340.571 122.139 339.974 122.139C339.404 122.139 338.914 122.036 338.503 121.831C338.092 121.625 337.79 121.334 337.598 120.956C337.406 120.578 337.349 120.131 337.429 119.614H338.602C338.562 119.912 338.594 120.169 338.697 120.384C338.799 120.596 338.962 120.76 339.184 120.876C339.409 120.989 339.679 121.045 339.994 121.045C340.359 121.045 340.684 120.969 340.969 120.817C341.257 120.661 341.496 120.436 341.685 120.141C341.877 119.842 342.009 119.481 342.082 119.057L343.275 111.818ZM347.357 122.179C346.873 122.179 346.449 122.088 346.084 121.906C345.72 121.72 345.45 121.453 345.274 121.105C345.098 120.754 345.05 120.33 345.13 119.832C345.206 119.395 345.354 119.04 345.572 118.768C345.791 118.493 346.056 118.278 346.368 118.122C346.683 117.963 347.021 117.845 347.382 117.769C347.747 117.69 348.11 117.628 348.471 117.585C348.941 117.526 349.324 117.479 349.619 117.446C349.914 117.413 350.136 117.358 350.285 117.282C350.435 117.206 350.526 117.075 350.559 116.889V116.849C350.638 116.362 350.574 115.983 350.365 115.711C350.156 115.436 349.783 115.298 349.246 115.298C348.69 115.298 348.224 115.421 347.849 115.666C347.475 115.911 347.198 116.173 347.019 116.452L345.985 116.054C346.257 115.59 346.582 115.229 346.959 114.97C347.337 114.708 347.733 114.526 348.148 114.423C348.562 114.317 348.961 114.264 349.346 114.264C349.591 114.264 349.868 114.294 350.176 114.354C350.484 114.41 350.773 114.528 351.041 114.707C351.313 114.886 351.517 115.156 351.653 115.517C351.792 115.878 351.812 116.362 351.712 116.969L350.877 122H349.704L349.883 120.966H349.823C349.717 121.132 349.555 121.309 349.336 121.498C349.12 121.687 348.847 121.848 348.516 121.98C348.187 122.113 347.801 122.179 347.357 122.179ZM347.695 121.125C348.159 121.125 348.565 121.034 348.913 120.852C349.265 120.669 349.546 120.434 349.758 120.146C349.974 119.857 350.108 119.554 350.161 119.236L350.34 118.162C350.28 118.222 350.163 118.276 349.987 118.326C349.811 118.372 349.613 118.414 349.391 118.45C349.172 118.483 348.958 118.513 348.749 118.54C348.544 118.563 348.378 118.583 348.252 118.599C347.94 118.639 347.644 118.704 347.362 118.793C347.084 118.879 346.848 119.01 346.656 119.186C346.467 119.358 346.35 119.594 346.303 119.892C346.234 120.3 346.331 120.608 346.597 120.817C346.862 121.022 347.228 121.125 347.695 121.125ZM352.541 124.864L354.301 114.364H355.435L355.236 115.577H355.375C355.481 115.444 355.627 115.275 355.813 115.07C356.002 114.861 356.255 114.675 356.573 114.513C356.895 114.347 357.304 114.264 357.801 114.264C358.444 114.264 358.983 114.425 359.417 114.746C359.851 115.068 360.158 115.524 360.337 116.114C360.516 116.704 360.539 117.4 360.406 118.202C360.274 119.01 360.02 119.711 359.646 120.305C359.271 120.895 358.814 121.352 358.274 121.677C357.733 121.998 357.145 122.159 356.509 122.159C356.018 122.159 355.639 122.078 355.37 121.915C355.102 121.75 354.906 121.562 354.783 121.354C354.661 121.142 354.566 120.966 354.5 120.827H354.401L353.725 124.864H352.541ZM354.818 118.182C354.725 118.759 354.725 119.267 354.818 119.708C354.914 120.146 355.105 120.489 355.39 120.737C355.678 120.982 356.058 121.105 356.528 121.105C357.019 121.105 357.448 120.976 357.816 120.717C358.187 120.455 358.492 120.104 358.731 119.663C358.973 119.219 359.14 118.725 359.233 118.182C359.319 117.645 359.316 117.161 359.223 116.73C359.13 116.296 358.941 115.953 358.656 115.701C358.371 115.446 357.98 115.318 357.483 115.318C357.006 115.318 356.583 115.439 356.215 115.681C355.851 115.92 355.549 116.254 355.31 116.685C355.075 117.113 354.911 117.612 354.818 118.182ZM364.715 122.159C364.013 122.159 363.425 121.992 362.951 121.657C362.477 121.322 362.142 120.853 361.946 120.25C361.754 119.647 361.723 118.944 361.852 118.142C361.978 117.36 362.228 116.679 362.603 116.099C362.98 115.515 363.449 115.065 364.009 114.746C364.573 114.425 365.193 114.264 365.869 114.264C366.572 114.264 367.158 114.433 367.629 114.771C368.103 115.106 368.438 115.577 368.633 116.183C368.829 116.786 368.862 117.492 368.733 118.301C368.607 119.077 368.353 119.754 367.972 120.335C367.594 120.911 367.125 121.36 366.565 121.682C366.008 122 365.392 122.159 364.715 122.159ZM364.735 121.105C365.272 121.105 365.738 120.968 366.132 120.692C366.53 120.417 366.852 120.054 367.097 119.604C367.345 119.153 367.513 118.666 367.599 118.142C367.679 117.645 367.675 117.183 367.589 116.755C367.503 116.324 367.319 115.978 367.037 115.716C366.755 115.451 366.359 115.318 365.849 115.318C365.312 115.318 364.843 115.457 364.442 115.736C364.044 116.014 363.723 116.38 363.478 116.835C363.232 117.289 363.068 117.777 362.985 118.301C362.906 118.798 362.907 119.261 362.99 119.688C363.076 120.112 363.26 120.455 363.542 120.717C363.827 120.976 364.225 121.105 364.735 121.105ZM371.846 117.406L371.09 122H369.917L371.19 114.364H372.323L372.124 115.557H372.224C372.462 115.169 372.786 114.857 373.193 114.622C373.601 114.384 374.093 114.264 374.67 114.264C375.18 114.264 375.611 114.37 375.962 114.582C376.317 114.791 376.567 115.109 376.713 115.537C376.862 115.961 376.884 116.498 376.778 117.148L375.962 122H374.789L375.585 117.227C375.684 116.631 375.606 116.163 375.351 115.825C375.099 115.487 374.7 115.318 374.153 115.318C373.775 115.318 373.425 115.399 373.104 115.562C372.786 115.724 372.515 115.961 372.293 116.273C372.075 116.584 371.926 116.962 371.846 117.406Z" fill="black"/>
<path d="M333.667 35L333.705 35.0342" stroke="black" stroke-width="1.5" stroke-linecap="round" stroke-linejoin="round"/>
<path d="M343.917 35L343.955 35.0342" stroke="black" stroke-width="1.5" stroke-linecap="round" stroke-linejoin="round"/>
<path d="M354.167 35L354.205 35.0342" stroke="black" stroke-width="1.5" stroke-linecap="round" stroke-linejoin="round"/>
<path d="M285.833 35C285.833 53.8696 301.13 69.1667 320 69.1667C331.177 69.1667 341.1 63.8001 347.333 55.5034L320 35L347.333 14.4967C341.1 6.19987 331.177 0.833344 320 0.833344C301.13 0.833344 285.833 16.1303 285.833 35Z" stroke="black" stroke-width="1.5" stroke-linecap="round" stroke-linejoin="round"/>
<path d="M179.75 31.5833L190 41.8333L217.333 14.5" stroke="black" stroke-width="1.5" stroke-linecap="round" stroke-linejoin="round"/>
<path d="M217.333 35C217.333 50.0958 205.096 62.3333 190 62.3333C174.904 62.3333 162.667 50.0958 162.667 35C162.667 19.9042 174.904 7.66666 190 7.66666C193.237 7.66666 196.342 8.22918 199.223 9.26176" stroke="black" stroke-width="1.5" stroke-linecap="round" stroke-linejoin="round"/>
<path d="M73.6667 35H46.3333M73.6667 35H78.45C79.5823 35 80.5 35.9177 80.5 37.05V60.2833C80.5 61.4156 79.5823 62.3333 78.45 62.3333H41.55C40.4178 62.3333 39.5 61.4156 39.5 60.2833V37.05C39.5 35.9177 40.4178 35 41.55 35H46.3333H73.6667ZM73.6667 35V21.3333C73.6667 16.7778 70.9333 7.66666 60 7.66666C49.0667 7.66666 46.3333 16.7778 46.3333 21.3333V35H73.6667Z" stroke="black" stroke-width="1.5" stroke-linecap="round" stroke-linejoin="round"/>
</g>
<defs>
<clipPath id="clip0_51_48">
<rect width="388" height="145" fill="white"/>
</clipPath>
</defs>
</svg>
